<svg width="818" height="632" viewBox="0 0 818 632" fill="none" xmlns="http://www.w3.org/2000/svg">
<g clip-path="url(#clip0_14_16180)">
<path d="M29.7681 348.499C35.2939 335.322 44.9196 324.459 57.3972 317.336C71.3009 309.144 90.1957 302.733 106.238 306.117C107.13 306.295 108.199 306.473 109.09 306.829C112.477 301.843 111.586 291.871 112.299 286.884C113.725 274.953 116.755 263.378 125.668 254.652C135.65 244.68 149.197 242.009 162.744 240.228C176.292 238.447 189.839 237.557 203.386 240.584C210.159 242.009 216.398 244.68 221.924 248.241C222.637 245.926 223.35 243.611 224.063 241.296C228.163 225.982 224.42 210.133 221.746 194.818C218.894 178.613 217.29 163.12 220.498 146.915C221.924 139.614 224.42 133.737 227.806 128.395C227.806 125.011 229.054 121.628 231.55 118.778C240.997 107.916 255.614 102.217 269.874 103.286C277.004 103.82 283.778 105.601 290.373 108.628C293.938 110.409 297.147 112.546 300.177 115.217C300.533 115.573 300.89 115.751 301.246 116.107C307.842 113.97 316.576 113.614 322.637 113.436C331.371 113.08 340.284 114.148 348.84 115.573C365.417 118.422 381.46 125.011 396.433 132.847C425.31 148.161 452.761 169.531 464.169 201.229C471.834 222.42 472.547 246.104 470.23 269.255C483.242 258.392 498.037 250.022 511.941 239.872C530.657 226.16 542.6 204.078 563.99 193.927C610.336 171.668 663.99 203.188 683.063 247.707C702.492 237.379 724.239 233.461 747.234 237.735C772.724 242.365 797.501 260.173 808.909 283.679C822.813 312.528 817.465 345.828 815.504 376.636C813.544 409.046 811.405 441.278 809.444 473.689C808.374 491.318 807.305 508.948 806.057 526.578C805.522 536.016 804.809 545.454 804.275 554.892C803.74 564.865 803.918 575.371 800.709 584.987C794.827 602.261 766.307 605.645 762.207 584.987C758.464 566.289 762.207 545.632 763.455 526.756C764.524 509.126 765.594 491.496 766.842 473.867C769.159 437.361 771.476 400.854 773.615 364.526C774.506 349.034 777.002 332.829 775.041 317.336C773.615 305.048 767.376 294.898 758.107 288.131C736.717 272.46 705.879 276.556 681.993 287.062C677.715 288.843 673.259 289.555 669.159 288.487C661.673 289.734 653.83 286.884 649.373 278.337C640.639 261.953 634.4 245.036 617.466 235.242C603.384 227.05 587.341 226.872 575.042 237.735C567.555 244.324 561.495 252.515 554.365 259.638C546.522 267.474 537.609 274.063 527.983 279.583C511.049 289.734 491.263 296.322 475.755 308.432C475.042 308.966 474.329 309.5 473.616 309.856C472.369 313.24 470.586 316.445 467.912 320.007C464.882 324.103 461.852 328.377 459.178 332.65C457.217 335.678 455.613 339.061 453.83 342.089C449.196 353.308 443.314 363.636 435.292 371.65C439.927 373.252 444.561 375.033 449.018 376.636C464.347 382.156 479.855 388.923 495.72 392.841C501.067 394.087 505.167 394.622 509.089 393.731C510.336 393.553 514.08 389.636 515.149 388.211C523.705 376.636 531.905 364.348 546.7 360.431C577.359 352.417 593.937 379.663 604.275 404.594C606.236 401.211 608.553 396.581 611.584 393.731C616.575 389.101 622.992 385.005 629.944 382.69C635.113 379.129 640.282 375.923 645.808 372.896C657.216 366.841 670.229 360.253 683.419 360.609C710.692 361.677 726.022 389.101 724.596 413.854C722.991 438.251 713.722 462.648 707.305 486.154C704.275 497.195 701.423 508.236 699.106 519.455C696.61 531.564 696.788 544.564 693.402 556.317C688.054 574.303 658.108 576.974 654.186 556.317C650.443 536.194 656.503 513.4 661.316 493.811C665.951 474.757 671.833 455.881 676.824 436.826C678.963 428.813 681.637 420.443 682.172 412.251C682.35 410.471 682.35 408.512 682.172 406.731C682.172 406.553 681.102 403.169 681.815 404.95C680.924 402.635 681.28 403.169 680.033 402.457C680.033 402.457 679.854 402.457 679.854 402.279C676.289 402.635 669.872 405.841 664.346 408.156C663.099 410.471 661.138 412.43 658.108 413.854C652.404 416.525 646.699 417.416 640.995 419.553C636.183 421.333 635.826 424.539 632.796 428.635C627.983 434.867 622.279 437.361 616.04 439.497C621.031 463.182 618.001 487.222 592.689 500.044C591.976 500.4 591.263 500.935 590.372 501.469C590.372 503.784 590.372 507.167 590.193 508.592C590.015 518.564 589.837 528.715 589.48 538.687C589.124 559.344 588.589 580.001 588.233 600.658C587.698 628.082 545.096 628.082 545.63 600.658C546.343 567.18 546.343 533.523 547.769 500.044C548.482 483.127 555.791 470.839 570.942 463.182C571.477 462.826 574.151 461.401 575.22 460.867C575.399 460.511 575.755 459.977 575.755 459.798C575.755 459.62 575.755 459.62 575.755 459.442C575.755 458.018 575.755 456.415 575.755 454.99C575.577 452.497 575.399 451.963 574.507 448.579C571.299 435.758 566.308 422.224 560.425 410.471C559.356 408.512 557.93 405.484 556.86 404.238C556.86 404.238 556.504 403.704 555.969 403.169C555.791 403.348 555.791 403.526 555.613 403.526C555.078 404.238 554.543 404.95 554.008 405.663C552.404 407.8 550.978 409.936 549.374 412.073C544.561 418.484 539.748 424.005 532.974 428.457C519.962 437.182 503.919 437.361 489.124 434.689C472.903 431.84 457.217 424.539 441.888 419.018C424.062 412.608 406.237 406.019 388.412 399.608C377.004 395.512 371.121 385.54 373.617 373.43C374.33 369.513 375.221 365.595 375.934 361.499C377.717 352.061 387.521 346.362 396.433 345.828C414.615 344.76 420.141 306.473 422.993 292.405C427.806 268.186 430.836 240.406 423.528 216.543C416.932 194.818 395.542 181.106 376.469 170.599C356.861 159.736 333.51 151.901 310.872 156.531C301.246 158.49 291.443 159.914 282.53 154.75C276.826 151.367 273.439 144.244 269.696 141.394C266.309 138.901 261.318 138.011 256.505 139.079C255.436 142.463 254.901 146.024 254.366 148.517C253.297 154.928 253.831 162.051 254.723 168.462C256.862 185.38 262.387 201.585 264.526 218.502C266.665 236.488 262.566 252.337 257.218 269.076C255.97 272.816 254.723 276.556 254.188 280.473C253.653 284.213 254.366 288.131 253.653 292.049C253.297 294.186 252.762 296.144 251.87 297.925C256.149 326.774 246.523 353.129 240.106 380.91C236.541 396.402 237.076 411.895 237.432 427.744C237.61 436.648 237.967 445.374 236.897 454.278C235.65 465.319 231.55 473.332 224.063 481.524C216.042 490.25 200.89 485.62 197.86 474.579C193.226 457.127 195.186 438.963 194.651 420.977C194.117 403.526 195.008 386.43 198.93 369.513C202.495 353.842 208.733 338.349 210.694 322.144C212.12 311.815 211.229 301.487 208.199 294.007C204.277 284.391 198.751 279.939 187.343 278.158C179.857 277.09 171.835 277.446 164.349 277.802C159.358 277.98 153.832 277.802 149.019 279.583C140.819 282.61 140.285 292.227 137.611 300.062C135.293 306.651 132.62 313.062 128.52 318.226C146.345 334.609 154.188 363.458 151.871 386.252C148.841 416.169 126.559 442.347 131.907 472.976C134.402 487.935 139.75 502.181 142.067 517.14C144.741 533.167 146.702 555.783 133.154 567.892C123.351 576.618 105.169 574.125 102.139 559.7C99.8213 548.481 103.386 536.728 101.426 525.331C99.2865 513.222 95.365 501.469 92.6912 489.359C89.8392 476.538 88.0566 463.36 89.6609 450.182C91.4434 435.402 97.1475 422.046 103.208 408.512C111.408 389.992 118.716 363.102 102.139 346.541C94.8302 339.239 86.0959 344.404 77.3615 346.897C68.8054 349.39 58.8232 350.636 53.4757 358.472C49.7324 363.992 43.1371 366.663 36.72 363.992C31.9072 361.855 27.0943 354.732 29.7681 348.499ZM576.646 458.73C576.825 458.018 576.825 458.196 576.646 458.73V458.73ZM559.356 400.498C560.247 400.32 559.891 400.32 559.356 400.498V400.498ZM555.078 400.854C555.078 400.854 555.256 400.854 555.434 400.854C552.047 396.224 554.721 401.211 555.078 400.854Z" fill="#EAD5B9"/>
<path d="M778.072 557.741C798.571 472.976 792.51 382.156 760.959 300.952C749.729 271.925 734.578 243.255 710.336 223.488C654.364 177.9 568.981 192.68 506.415 156.887C482.173 142.997 462.921 122.34 444.383 101.504C428.34 83.3404 412.476 64.8202 393.938 49.5055C333.154 -0.534525 245.097 -11.3973 170.766 14.4241C96.4345 40.2454 36.3634 99.3674 0.712946 169.352" stroke="#5A45B5" stroke-miterlimit="10"/>
<path d="M673.616 572.344C672.724 558.097 698.749 431.484 700.353 417.416C701.958 403.347 701.779 388.211 694.828 375.745C690.015 367.198 682.35 360.609 676.824 352.595C672.011 345.65 668.625 337.637 665.951 329.623C661.851 317.158 659.355 303.98 661.673 290.98C663.99 278.158 671.655 265.693 683.776 260.351C692.332 256.611 704.275 257.679 708.91 265.871C718.179 256.077 736.182 256.611 744.56 267.118C751.334 265.515 758.998 268.186 763.277 273.884C770.585 267.83 783.063 269.967 787.697 278.158C789.658 281.72 790.371 285.994 790.906 289.912C793.758 310.034 796.431 330.335 796.61 350.636C796.788 360.609 796.075 370.937 791.084 379.663C789.48 382.334 787.519 384.827 786.449 387.855C785.558 390.348 785.38 393.197 785.202 395.868C783.776 418.306 785.558 575.193 784.31 597.453C757.394 608.672 699.284 585.343 673.616 572.344Z" fill="#CE956E"/>
<path d="M707.127 328.198C712.475 322.321 716.931 315.733 720.496 308.609C727.091 305.404 733.865 300.24 739.213 295.254C743.312 291.336 747.056 286.706 748.303 281.007C749.551 275.487 747.59 268.898 742.599 266.049C737.252 263.021 730.478 265.158 725.487 268.364C720.318 271.569 715.862 276.021 710.336 278.336C707.484 279.405 704.275 279.939 701.601 281.363C698.215 283.144 695.541 286.35 693.223 289.377C684.846 299.706 676.468 310.034 668.09 320.363" stroke="#302B28" stroke-miterlimit="10" stroke-linecap="round"/>
<path d="M787.519 296.145C787.341 301.843 785.558 307.542 781.815 311.815C778.071 316.089 772.546 318.939 766.842 318.761" stroke="#302B28" stroke-miterlimit="10" stroke-linecap="round"/>
<path d="M763.277 275.665C767.911 285.281 765.416 296.678 762.92 307.007C762.029 310.568 761.138 314.13 760.246 317.692C759.712 319.828 759.177 322.143 757.929 323.924C755.612 327.308 751.334 328.91 747.234 329.267C741.708 329.801 735.826 329.623 731.013 326.774" stroke="#302B28" stroke-miterlimit="10" stroke-linecap="round"/>
<path d="M739.747 298.638C740.282 303.446 739.926 308.432 738.5 313.24C737.965 315.377 737.074 317.336 735.469 318.939C732.083 322.144 725.487 321.788 720.853 321.254" stroke="#302B28" stroke-miterlimit="10" stroke-linecap="round"/>
<path d="M708.197 268.72C707.84 271.747 707.662 274.596 707.305 277.624" stroke="#302B28" stroke-miterlimit="10" stroke-linecap="round"/>
<path d="M678.25 274.597C677.181 279.405 676.111 284.391 676.824 289.377C677.181 292.048 678.25 294.541 679.32 296.856C678.072 299.884 676.646 303.445 675.933 306.651" stroke="#302B28" stroke-miterlimit="10" stroke-linecap="round"/>
<path d="M677.715 297.035C674.329 295.432 671.477 292.939 669.159 290.09C668.803 289.556 668.446 289.022 668.803 288.487" stroke="#302B28" stroke-miterlimit="10" stroke-linecap="round"/>
<path d="M717.287 319.116C725.843 323.568 734.578 328.198 741.53 334.965C748.482 341.732 753.651 350.992 753.473 360.608" stroke="#302B28" stroke-miterlimit="10" stroke-linecap="round"/>
<path d="M746.521 328.911C755.433 330.158 763.633 335.144 768.802 342.445" stroke="#302B28" stroke-miterlimit="10" stroke-linecap="round"/>
<path d="M785.736 387.677C777.358 392.485 766.485 392.663 758.107 388.033" stroke="#302B28" stroke-miterlimit="10" stroke-linecap="round"/>
<path d="M701.423 382.69C706.236 386.252 712.475 387.142 718.357 386.964C724.239 386.786 730.3 385.718 736.182 385.718" stroke="#302B28" stroke-miterlimit="10" stroke-linecap="round"/>
<path d="M702.671 331.048C701.066 335.144 699.106 339.239 696.432 342.801C694.471 345.472 691.976 347.965 688.767 348.321" stroke="#302B28" stroke-miterlimit="10" stroke-linecap="round"/>
<path d="M49.7324 571.453C49.5541 559.166 54.3669 537.618 55.6147 525.331C55.9712 521.769 56.6842 517.674 56.3277 514.112C53.1192 473.866 47.2368 433.621 38.3242 394.265C35.1157 380.019 31.5507 365.417 34.0462 350.992C34.5809 347.431 35.6504 343.869 37.9677 341.02C40.285 338.171 44.2065 336.568 47.5933 337.636C48.3063 337.815 49.1976 338.349 49.9106 338.171C50.9801 337.993 51.6931 337.102 52.2279 336.39C55.4364 332.828 60.6058 331.582 65.0621 333.006C68.4489 325.527 78.7875 322.322 85.9176 326.596C91.4434 320.541 100.534 319.294 108.556 320.541C114.616 321.609 121.033 324.459 123.707 330.157C125.668 334.431 125.133 339.595 124.42 344.403C123.707 348.855 123.172 353.485 122.459 357.937C121.925 361.143 121.568 364.526 122.816 367.554C124.42 371.115 128.163 373.252 130.124 376.814C133.333 382.69 130.124 389.813 126.737 395.512C122.994 401.567 118.894 407.443 114.616 413.142C110.338 418.484 105.704 423.826 103.565 430.415C92.3347 464.072 113.012 500.934 116.22 536.194C116.933 543.139 120.855 560.947 121.212 568.07C114.616 571.631 106.417 570.919 98.93 572.166C89.1261 573.768 78.431 573.768 68.6271 575.193C66.1316 575.549 60.071 573.056 57.3972 572.522C55.2582 571.453 49.9106 574.124 49.7324 571.453Z" fill="#60463C"/>
<path d="M120.499 364.704C118.003 361.677 115.686 358.828 113.19 355.8C111.229 353.485 109.269 350.992 106.595 349.568C102.852 347.609 98.2169 347.965 93.9389 347.965C89.6608 347.965 85.2045 347.609 81.1047 348.321C77.0049 349.033 72.5486 350.992 70.2313 354.554C67.914 358.115 68.0923 363.636 71.6573 366.307C73.2616 367.554 75.4007 368.088 77.5397 368.444C83.2438 369.512 89.1261 370.403 94.8301 371.115C96.0779 378.773 100.534 385.361 104.991 391.772" stroke="#302B28" stroke-miterlimit="10" stroke-linecap="round"/>
<path d="M106.416 330.691C107.13 335.856 107.664 344.76 107.486 350.102" stroke="#302B28" stroke-miterlimit="10" stroke-linecap="round"/>
<path d="M86.4524 327.486C85.2046 334.075 85.0264 341.02 85.5611 347.609C85.5611 347.253 85.5611 346.897 85.5611 346.541" stroke="#302B28" stroke-miterlimit="10" stroke-linecap="round"/>
<path d="M65.9535 334.609C65.0622 342.979 66.1317 351.527 68.9836 359.54" stroke="#302B28" stroke-miterlimit="10" stroke-linecap="round"/>
<path d="M49.9105 339.596C49.3758 350.28 50.6236 361.143 53.6538 371.472C54.9016 375.746 56.6841 380.198 60.4274 382.691C64.5272 385.362 70.766 384.471 73.9745 380.732C75.2223 379.307 75.9353 377.704 75.9353 375.746C75.9353 372.54 73.4397 371.116 71.6572 366.129" stroke="#302B28" stroke-miterlimit="10" stroke-linecap="round"/>
<path d="M90.5519 370.759C91.0867 372.896 89.6607 375.033 87.8782 376.101C85.9174 377.17 83.7784 377.17 81.6394 377.348C80.3916 377.348 77.3614 376.992 75.9354 377.17" stroke="#302B28" stroke-miterlimit="10" stroke-linecap="round"/>
<path d="M116.399 333.896C114.616 337.28 112.121 340.129 109.09 342.444C108.734 342.622 107.664 343.869 107.486 343.513" stroke="#302B28" stroke-miterlimit="10" stroke-linecap="round"/>
<path d="M59.5362 381.978C60.9622 384.293 61.3187 388.923 59.1797 390.526C57.0406 392.307 54.0104 392.485 51.3366 392.128C49.3758 391.95 47.5933 391.594 45.989 390.348C44.7412 389.457 44.0282 388.033 43.3152 386.608C38.1459 376.992 34.7591 366.307 33.6896 355.444" stroke="#302B28" stroke-miterlimit="10" stroke-linecap="round"/>
<path d="M94.8301 371.827C77.1832 379.306 64.8838 397.649 64.5273 416.881" stroke="#302B28" stroke-miterlimit="10" stroke-linecap="round"/>
<path d="M618.179 628.794C618.001 616.507 622.814 594.959 624.061 582.672C624.418 579.11 625.131 575.014 624.774 571.453C621.566 531.207 615.684 490.961 606.771 451.606C603.562 437.36 599.997 422.757 602.493 408.333C603.028 404.772 604.097 401.21 606.414 398.361C608.732 395.511 612.653 393.909 616.04 394.977C616.753 395.155 617.644 395.69 618.357 395.512C619.427 395.333 620.14 394.443 620.675 393.731C623.883 390.169 629.053 388.923 633.509 390.347C636.896 382.868 647.234 379.663 654.364 383.936C659.89 377.882 668.981 376.635 677.002 377.882C683.063 378.95 689.48 381.799 692.154 387.498C694.115 391.772 693.58 396.936 692.867 401.744C692.154 406.196 691.619 410.826 690.906 415.278C690.371 418.484 690.015 421.867 691.263 424.894C692.867 428.456 696.61 430.593 698.571 434.154C701.779 440.031 698.571 447.154 695.184 452.853C691.441 458.907 687.341 464.784 683.063 470.482C678.785 475.825 674.15 481.167 672.011 487.756C660.781 521.413 681.459 558.275 684.667 593.535C685.38 600.48 689.302 618.287 689.658 625.411C683.063 628.972 674.863 628.26 667.377 629.506C657.573 631.109 646.878 631.109 637.074 632.534C634.578 632.89 628.518 630.397 625.844 629.863C623.705 628.794 618.357 631.465 618.179 628.794Z" fill="#B5835D"/>
<path d="M688.945 422.045C686.45 419.018 684.133 416.169 681.637 413.141C679.676 410.826 677.715 408.333 675.042 406.909C671.298 404.95 666.664 405.306 662.386 405.306C658.108 405.306 653.651 404.95 649.552 405.662C645.452 406.374 640.995 408.333 638.678 411.895C636.361 415.456 636.539 420.977 640.104 423.648C641.708 424.894 643.848 425.429 645.987 425.785C651.691 426.853 657.573 427.744 663.277 428.456C664.525 436.113 668.981 442.702 673.437 449.113" stroke="#302B28" stroke-width="0.75" stroke-miterlimit="10" stroke-linecap="round"/>
<path d="M674.863 388.21C675.576 393.374 676.111 402.278 675.933 407.621" stroke="#302B28" stroke-width="0.75" stroke-miterlimit="10" stroke-linecap="round"/>
<path d="M654.899 384.827C653.651 391.416 653.473 398.361 654.008 404.95C654.008 404.594 654.008 404.238 654.008 403.881" stroke="#302B28" stroke-width="0.75" stroke-miterlimit="10" stroke-linecap="round"/>
<path d="M634.4 391.95C633.509 400.32 634.578 408.868 637.43 416.881" stroke="#302B28" stroke-width="0.75" stroke-miterlimit="10" stroke-linecap="round"/>
<path d="M618.357 396.937C617.823 407.621 619.07 418.484 622.101 428.813C623.349 433.086 625.131 437.538 628.874 440.031C632.974 442.703 639.213 441.812 642.422 438.073C643.669 436.648 644.382 435.045 644.382 433.086C644.382 429.881 641.887 428.456 640.104 423.47" stroke="#302B28" stroke-width="0.75" stroke-miterlimit="10" stroke-linecap="round"/>
<path d="M658.999 428.1C659.534 430.237 658.108 432.373 656.325 433.442C654.364 434.51 652.225 434.51 650.086 434.689C648.839 434.689 645.808 434.332 644.382 434.51" stroke="#302B28" stroke-width="0.75" stroke-miterlimit="10" stroke-linecap="round"/>
<path d="M684.845 391.237C683.063 394.621 680.567 397.47 677.537 399.785C677.181 399.963 676.111 401.21 675.933 400.854" stroke="#302B28" stroke-width="0.75" stroke-miterlimit="10" stroke-linecap="round"/>
<path d="M627.983 439.319C629.409 441.634 629.765 446.264 627.626 447.867C625.487 449.647 622.457 449.825 619.783 449.469C617.823 449.291 616.04 448.935 614.436 447.688C613.188 446.798 612.475 445.373 611.762 443.949C606.593 434.333 603.206 423.648 602.136 412.785" stroke="#302B28" stroke-width="0.75" stroke-miterlimit="10" stroke-linecap="round"/>
<path d="M663.277 429.168C645.63 436.647 633.331 454.989 632.974 474.222" stroke="#302B28" stroke-width="0.75" stroke-miterlimit="10" stroke-linecap="round"/>
<path d="M127.985 566.823C132.62 539.399 145.097 435.935 146.88 408.155C147.593 396.402 147.949 384.649 145.81 373.252C143.671 361.855 138.68 350.458 130.302 342.444C127.094 339.239 123.35 336.746 119.785 333.896C114.438 329.801 109.09 325.527 105.525 320.006C101.782 314.486 99.8212 307.363 101.782 300.952C102.851 297.034 105.347 293.473 107.308 289.733C109.269 285.993 111.051 282.076 110.338 277.98C109.269 270.501 108.556 262.487 111.051 255.364C113.547 248.241 120.32 241.83 127.807 242.364C132.798 242.72 138.324 245.926 142.423 248.775C143.849 246.282 146.88 245.392 149.554 244.679C153.475 243.789 157.575 243.077 161.318 244.145C165.24 245.213 168.805 248.241 169.518 252.159C171.657 248.953 176.113 247.707 180.035 248.419C183.956 249.131 187.165 251.268 190.373 253.405C194.473 247.172 204.455 247.707 210.159 252.515C215.863 257.323 218.181 264.98 219.785 272.281C224.954 295.61 224.419 320.006 219.963 343.513C216.042 364.348 217.289 385.717 218.537 406.909C220.141 434.333 225.667 547.234 227.271 574.658C223.528 577.508 214.794 580.179 210.159 581.069C197.86 583.918 184.313 584.809 171.657 584.809C159.001 584.809 138.68 573.59 127.985 566.823Z" fill="#D6B094"/>
<path d="M214.437 262.665C213.546 268.185 212.833 273.706 211.942 279.226C211.585 281.185 211.407 283.322 210.694 285.103C209.268 289.021 206.238 292.226 202.494 293.829C198.751 295.431 194.295 295.431 190.373 293.651" stroke="#302B28" stroke-miterlimit="10" stroke-linecap="round"/>
<path d="M190.017 253.583C192.69 258.035 192.69 263.378 191.977 268.364C191.264 273.35 190.017 278.336 190.195 283.501C190.373 288.487 191.799 294.185 188.769 297.925C185.739 301.665 180.213 301.665 175.578 300.774C172.191 300.062 168.448 298.281 167.2 295.076C166.666 293.651 166.666 292.226 166.666 290.624C166.666 287.062 166.666 283.322 166.666 279.761C166.666 270.857 166.844 261.953 169.518 253.405" stroke="#302B28" stroke-miterlimit="10" stroke-linecap="round"/>
<path d="M111.229 278.514C111.942 274.062 113.012 269.432 115.864 266.048C118.359 263.021 122.103 261.418 125.846 259.815C135.115 255.898 144.384 251.802 153.653 247.884C155.079 247.172 156.862 246.638 158.288 247.528C159.179 248.062 159.714 249.309 160.07 250.377C162.031 257.5 160.783 265.514 156.862 271.747C152.94 277.979 146.167 282.609 139.215 284.924C138.502 287.952 137.611 290.979 136.363 293.828C135.65 295.609 134.758 297.39 133.154 298.458C131.015 300.061 128.341 300.061 125.846 300.061" stroke="#302B28" stroke-miterlimit="10" stroke-linecap="round"/>
<path d="M167.022 289.021C165.774 291.158 162.744 294.541 160.249 295.075C157.753 295.61 155.258 295.432 152.94 295.075C150.623 294.719 148.128 294.363 146.167 293.117C144.028 291.87 141.71 286.35 141.532 283.856" stroke="#302B28" stroke-miterlimit="10" stroke-linecap="round"/>
<path d="M142.424 249.131C142.067 250.199 141.532 252.336 141.176 253.227" stroke="#302B28" stroke-miterlimit="10" stroke-linecap="round"/>
<path d="M137.254 289.733C147.236 292.761 157.218 296.678 165.775 302.555C174.331 308.432 181.995 316.267 185.917 326.061" stroke="#302B28" stroke-miterlimit="10" stroke-linecap="round"/>
<path d="M130.302 299.705C129.054 303.801 127.628 308.075 126.381 312.171C125.489 315.02 124.242 318.225 121.39 319.116" stroke="#302B28" stroke-miterlimit="10" stroke-linecap="round"/>
<path d="M220.32 343.869C219.072 344.403 218.181 345.65 217.29 346.54C214.259 349.39 209.803 350.458 205.525 351.17C200.356 352.061 195.186 353.129 190.017 352.773" stroke="#302B28" stroke-miterlimit="10" stroke-linecap="round"/>
<path d="M177.717 341.91C174.33 345.828 169.339 348.499 164.348 349.924C159.357 351.348 154.01 352.061 148.841 352.595" stroke="#302B28" stroke-miterlimit="10" stroke-linecap="round"/>
<path d="M154.188 247.528C154.901 248.419 155.258 249.665 155.614 250.734C156.149 252.871 156.505 255.008 156.684 257.145H156.505C152.227 258.569 149.553 262.309 145.275 263.733C143.493 264.268 141.71 264.802 139.928 264.624C137.967 264.446 136.185 263.377 135.115 261.953C133.867 260.528 133.332 258.569 133.511 256.61" stroke="#302B28" stroke-miterlimit="10" stroke-linecap="round"/>
<path d="M454.543 509.303L471.121 600.658H519.784V493.811L454.543 509.303Z" fill="#915D36"/>
<path d="M467.199 585.878C468.982 574.125 465.06 530.317 464.704 518.386C464.704 517.496 464.704 516.783 464.882 515.893C466.308 512.153 472.012 512.51 475.755 511.263C490.907 506.633 506.058 502.003 521.388 497.373C518.714 478.14 514.436 459.264 508.732 440.744C505.523 430.059 501.245 419.018 492.333 412.251C486.45 407.799 479.142 405.841 471.834 404.06C441.174 396.046 410.515 388.033 380.034 380.019C341.353 369.869 299.999 387.32 260.248 391.416C252.94 392.129 245.275 390.882 239.036 386.786C225.667 389.992 212.12 393.553 198.751 396.759C195.186 397.649 191.443 398.539 188.234 400.32C186.095 401.567 184.134 403.169 181.817 403.704C178.609 404.594 175.044 403.526 171.657 404.416C167.735 405.663 165.418 409.402 162.388 412.251C158.644 415.813 153.475 417.594 149.554 420.977C142.78 426.676 140.106 435.936 137.967 444.484C132.798 464.25 125.668 560.234 120.498 580.179C130.659 595.316 147.415 591.042 164.17 598.165C178.609 604.22 195.899 601.549 211.407 603.864C282.53 614.37 357.039 602.973 428.875 607.247C436.896 607.781 445.096 608.138 452.583 605.288C460.426 602.261 466.13 593.713 467.199 585.878Z" fill="#6059C9"/>
<path d="M427.627 310.924C427.449 311.28 427.449 311.637 427.093 311.815C426.736 312.171 426.201 311.993 425.666 311.993C418.715 310.746 412.298 307.363 406.415 303.267C403.385 301.13 400.533 298.815 398.929 295.432C398.572 294.719 398.216 293.829 398.572 292.938C398.929 291.87 399.998 291.336 401.068 291.158C404.633 290.089 408.554 289.911 412.298 290.267C418.18 290.802 424.597 292.226 429.945 295.075C432.975 296.678 431.727 298.103 430.836 301.13C429.766 304.335 428.697 307.541 427.627 310.924Z" fill="#7A4D2B"/>
<path d="M437.431 295.966C437.253 296.856 437.075 297.568 436.362 298.103C435.47 298.993 433.866 298.637 432.618 298.281C422.458 295.431 412.119 293.829 401.602 293.473C400.176 293.473 398.572 293.294 397.859 292.048C397.324 291.158 397.324 289.911 397.503 288.843C397.681 287.596 397.859 286.527 398.572 285.459C399.285 284.569 400.355 284.034 401.602 283.678C407.663 281.719 414.258 281.897 420.497 283.322C424.775 284.391 429.053 285.993 433.153 287.774C434.223 288.308 437.609 289.199 438.322 290.267C439.036 291.87 437.788 294.719 437.431 295.966Z" fill="white"/>
<path d="M428.34 310.569C427.984 309.856 427.093 309.322 426.38 308.966C419.606 305.404 412.476 302.377 405.168 299.884C404.455 300.24 404.098 301.13 404.276 301.843C404.455 302.555 404.989 303.267 405.524 303.802C410.515 309.144 416.932 312.705 423.706 315.377C425.132 315.911 427.093 316.801 428.162 315.555C428.875 315.02 428.697 311.459 428.34 310.569Z" fill="white"/>
<path d="M278.073 139.969C278.786 140.682 279.856 139.613 280.034 138.723C282.173 131.421 276.647 123.764 270.052 119.668C260.783 113.792 249.018 111.833 238.501 114.682C227.806 117.353 218.537 124.654 213.368 134.449C210.338 140.147 208.733 146.38 207.842 152.613C206.773 160.626 206.773 168.996 209.625 176.653C212.477 184.311 218.181 191.078 226.024 193.749" fill="#302B28"/>
<path d="M236.363 387.32C240.819 395.333 246.88 404.771 248.306 407.264C255.257 419.374 265.418 429.524 277.004 437.36C292.334 447.688 310.516 454.989 328.876 457.661C336.54 458.729 344.384 459.085 352.048 457.839C364.883 455.702 375.4 448.4 383.243 438.072C388.59 430.949 393.225 422.579 395.72 414.031C397.146 409.223 398.038 404.237 398.572 399.251C398.751 398.004 400.177 385.005 399.285 384.827C391.264 382.868 388.055 382.155 380.925 379.484C379.143 371.293 379.856 362.389 383.777 354.909C393.225 357.581 403.385 357.581 412.832 355.087C416.576 354.197 420.676 352.238 421.745 348.677C422.28 347.252 422.102 345.649 421.923 344.047C421.745 338.17 422.458 331.225 423.706 325.348C425.667 325.883 427.984 324.992 429.41 323.389C430.658 321.787 431.192 319.472 431.192 317.335C431.192 316.801 431.014 316.088 430.836 315.554C430.301 314.664 429.232 314.307 428.34 314.129C417.289 310.746 407.307 303.623 400.533 294.185C399.464 292.76 398.394 290.801 399.107 289.198C399.642 287.774 401.424 287.061 402.85 286.527C415.15 282.966 429.232 285.637 440.283 292.048C441.709 291.335 441.888 289.555 442.066 288.13C442.422 284.39 443.67 279.76 443.848 276.021C449.731 277.267 455.97 271.034 454.544 265.158C453.831 262.131 451.692 259.637 450.087 256.966C442.957 245.391 446.879 230.789 445.987 217.255C444.74 195.351 430.479 175.941 413.546 161.872C401.068 151.544 386.095 142.996 369.874 142.996C339.036 142.818 306.416 144.065 284.313 165.434C262.209 186.803 252.049 219.926 258.644 250.021C260.783 260.172 264.705 269.788 269.339 279.226C272.726 285.993 276.291 292.76 278.43 300.061C280.213 306.294 280.926 312.883 280.926 319.472C280.926 333.896 277.717 348.499 270.409 360.964C262.744 373.429 250.266 383.402 236.363 387.32Z" fill="#A56F42"/>
<path d="M276.648 297.212C277.004 297.568 277.361 298.102 277.895 298.458C283.421 294.185 283.243 285.815 281.46 279.048C279.678 272.281 276.826 265.336 278.608 258.569C280.926 249.843 290.195 245.213 298.751 242.542C303.564 241.117 308.555 240.049 313.368 240.583C317.467 241.117 321.567 242.72 325.845 242.72C330.123 242.72 334.758 239.871 334.758 235.775C334.758 233.638 333.688 231.857 332.797 229.898C330.123 224.378 329.054 218.323 328.876 212.269C328.697 206.392 329.232 199.981 332.975 195.529C336.54 191.255 342.423 189.296 347.949 188.94C353.653 188.584 359.178 189.475 364.883 189.831C369.695 190.009 375.043 189.653 378.608 186.447C381.638 183.598 382.708 179.324 384.134 175.228C386.273 169.174 389.66 163.119 395.185 159.735C400.533 156.174 408.376 158.311 413.545 162.229C402.85 149.407 389.838 140.859 375.399 133.914C360.961 126.969 344.918 122.695 329.054 123.586C320.319 124.12 311.763 126.079 303.385 128.572C290.016 132.668 277.004 138.188 265.774 146.558C254.544 154.927 245.453 166.502 241.532 179.858C239.749 185.913 239.036 192.324 238.68 198.557C237.432 217.077 238.858 236.131 244.919 253.761C250.979 271.391 261.853 287.596 277.361 298.102" fill="#302B28"/>
<path d="M342.423 123.051C341.71 121.271 339.392 120.736 337.432 120.38C313.902 117.353 289.66 123.942 269.696 136.942C249.91 149.941 234.402 169.174 224.241 190.543C219.785 199.981 216.22 209.954 215.685 220.46C214.794 235.597 220.141 250.734 229.232 263.021C238.323 275.13 250.266 284.212 263.813 290.979C266.309 257.323 278.074 224.378 297.681 196.776C317.289 169.352 344.562 147.27 375.578 134.092C376.112 133.914 377.004 133.736 377.36 134.27C377.717 134.805 376.291 135.161 376.647 134.627C384.668 134.627 391.799 127.147 391.977 119.134C391.977 111.12 386.451 103.641 379.143 100.435C375.756 98.8328 371.3 98.2985 368.447 100.792C362.209 94.3808 350.979 94.2028 344.562 100.435C337.966 106.134 336.362 116.641 342.423 123.051Z" fill="#6059C9"/>
<path d="M355.435 150.654C351.335 144.065 344.383 139.079 336.897 137.298C331.906 136.052 325.845 136.764 323.35 141.038C321.389 144.422 322.458 148.695 323.706 152.435C320.141 153.682 316.22 152.435 312.476 151.723C308.733 151.01 304.277 151.367 301.959 154.216C299.107 157.956 301.425 163.476 303.742 167.572C300.177 167.216 296.434 167.038 293.582 168.818C288.412 172.202 289.482 180.928 294.295 185.023C298.929 189.119 305.703 190.01 311.942 190.722" fill="#D991C5"/>
<path d="M336.362 111.477C336.719 113.436 338.679 114.682 340.64 115.038C342.601 115.394 344.562 114.682 346.166 113.792C348.305 112.723 350.444 110.052 349.018 108.093C348.662 107.381 347.77 106.669 348.305 105.956C348.84 105.956 349.375 105.956 350.088 105.778C352.048 103.107 350.801 99.0112 348.127 97.0523C345.453 95.0935 341.71 95.0935 338.501 95.9839" fill="#D991C5"/>
<path d="M390.373 106.491C388.59 106.669 386.629 106.313 384.847 106.491C383.064 106.669 381.103 107.915 380.747 109.696C380.034 112.902 385.025 116.107 383.421 118.956C382.529 120.559 380.212 121.271 380.212 122.874C380.212 123.408 380.569 123.943 380.747 124.477C383.956 129.107 390.729 130.888 395.72 128.216" fill="#D991C5"/>
<path d="M268.983 125.367C273.083 125.011 277.182 127.504 278.787 131.243C280.391 134.983 279.321 139.613 276.291 142.462C273.974 144.599 270.587 145.668 269.339 148.517C268.626 149.942 268.626 151.544 268.804 153.147C268.983 156.531 268.983 159.914 269.161 163.297C269.339 167.393 268.983 172.379 265.418 174.516C262.209 176.475 258.109 175.051 254.723 173.626C251.692 177.188 248.305 180.571 244.74 183.777C242.423 185.735 239.215 187.516 236.897 185.913C235.65 185.023 235.115 183.42 234.758 181.996C233.689 177.9 233.154 173.448 233.332 169.174" fill="#D991C5"/>
<path d="M213.546 225.09C215.863 220.994 219.072 217.255 222.994 214.406C224.776 213.159 226.559 211.912 228.698 211.556C230.837 211.2 233.154 211.734 234.58 213.515C236.897 216.364 235.293 221.351 237.788 224.022C240.819 227.227 246.166 224.734 250.266 226.159C253.653 227.405 255.435 231.323 254.722 234.706C254.009 238.09 250.979 240.761 247.592 241.652C246.701 241.83 245.81 242.008 245.097 242.542C243.849 243.432 243.493 245.213 243.671 246.816C243.849 248.953 244.74 250.912 245.275 253.049C245.81 255.186 245.632 257.501 244.206 259.103C242.958 260.528 240.641 260.884 238.858 260.528C236.897 260.172 235.115 259.281 233.332 258.569C226.915 256.076 219.785 255.898 213.368 258.035" fill="#D991C5"/>
<path d="M284.847 220.283C286.63 214.94 284.491 208.351 279.678 205.146C278.252 204.078 276.469 203.365 274.865 203.899C271.835 204.612 271.122 208.529 271.657 211.557C272.191 215.831 273.974 219.748 275.756 223.488C271.835 222.063 267.022 224.735 265.952 228.83C264.883 233.282 267.735 237.556 271.122 240.762C267.022 240.405 263.813 244.145 261.496 247.529C260.783 248.597 260.07 249.666 260.07 250.734C260.07 252.159 261.14 253.583 262.209 254.474C264.883 256.967 268.448 258.391 272.191 258.569" fill="#D991C5"/>
<path d="M242.958 283.857C244.919 279.405 249.197 276.199 254.01 275.487C258.822 274.775 263.813 276.733 267.022 280.295C268.626 282.076 269.696 284.391 269.517 286.884C269.339 289.199 268.092 291.336 266.309 292.76C262.566 296.144 257.218 297.212 252.405 295.966C247.593 294.541 243.671 290.98 241.532 286.35" fill="#D991C5"/>
<path d="M316.576 123.23C315.15 126.97 311.942 129.997 308.376 131.6C307.129 132.134 305.524 132.668 304.098 132.49C302.138 132.312 300.533 131.244 298.929 129.997C296.077 127.682 293.403 124.655 293.047 120.915C292.512 116.641 295.186 112.367 298.929 110.052C308.376 104.176 320.498 112.189 316.576 123.23Z" fill="#D991C5"/>
<path d="M382.351 136.052C364.348 123.586 340.284 124.298 321.389 114.504C318.537 113.08 319.963 108.806 322.993 108.806C334.045 108.806 345.096 112.723 355.435 116.641C366.309 120.737 374.33 127.148 383.777 133.737C385.203 134.805 383.777 137.12 382.351 136.052Z" fill="#C1C1C1"/>
<path d="M284.669 128.573C273.974 142.641 260.427 153.325 252.405 169.531C244.384 185.558 236.541 203.366 234.58 221.351C232.976 237.557 237.076 253.227 248.484 264.981C259.714 276.378 274.509 282.967 287.878 291.336C297.681 297.391 291.443 315.199 279.678 310.747C242.958 296.857 209.268 269.967 210.338 227.406C210.873 206.037 218.894 184.845 229.054 166.147C233.867 157.421 240.106 148.874 247.058 141.928C255.257 133.915 265.418 128.038 273.796 120.381C279.321 115.573 289.482 122.162 284.669 128.573Z" fill="#C1C1C1"/>
<path d="M400.711 223.666C402.672 224.378 404.633 225.269 406.593 225.981C410.337 227.406 414.08 228.83 417.823 230.077C420.497 230.967 422.993 232.036 425.667 232.926C425.31 230.077 422.28 227.584 419.784 225.625C418.358 224.557 416.754 223.488 415.15 222.776C412.832 221.885 410.337 221.351 407.841 221.529C405.346 221.707 402.85 222.42 400.711 223.666Z" fill="white"/>
<path d="M406.593 225.447C406.593 225.625 406.593 225.803 406.593 225.981C410.337 227.405 414.08 228.83 417.823 230.077C418.893 229.008 419.606 227.405 419.784 225.803C418.358 224.734 416.754 223.666 415.15 222.954C412.832 222.063 410.337 221.529 407.841 221.707C406.95 222.775 406.593 224.022 406.593 225.447Z" fill="#302B28"/>
<path d="M426.38 233.995C424.954 228.831 419.606 224.201 414.437 222.598C409.267 220.995 404.989 221.529 399.998 223.666" stroke="#302B28" stroke-width="0.74" stroke-miterlimit="10" stroke-linecap="round"/>
<path d="M426.023 229.542C425.132 224.556 421.745 220.104 417.289 217.967C412.832 215.83 407.128 216.008 402.85 218.323" stroke="#302B28" stroke-width="0.74" stroke-miterlimit="10" stroke-linecap="round"/>
<path d="M390.373 210.132C403.385 204.256 419.963 207.105 430.301 216.899C433.153 217.255 435.47 214.228 436.183 211.557C436.362 210.667 436.54 209.598 436.362 208.53C435.827 206.037 433.153 204.612 430.658 203.721C421.21 200.338 410.337 198.557 401.246 202.653C397.324 204.612 393.403 207.283 390.373 210.132Z" fill="#302B28"/>
<path d="M427.806 265.158C429.232 264.802 430.836 265.158 432.262 265.692C435.827 266.939 439.035 268.898 441.709 271.747C441.353 272.281 441.353 272.815 440.818 272.815C440.283 272.815 439.748 272.459 439.214 272.281C435.114 270.144 431.192 268.007 427.806 265.158Z" fill="#302B28"/>
<path d="M419.071 263.733C408.554 266.939 398.572 273.884 393.938 283.856C390.194 292.048 390.016 301.486 390.729 310.568" stroke="#302B28" stroke-width="0.74" stroke-miterlimit="10" stroke-linecap="round"/>
<path d="M426.736 254.296C425.132 255.364 424.062 256.967 423.706 258.748C423.349 260.529 423.706 262.488 424.775 264.09" stroke="#302B28" stroke-width="0.74" stroke-miterlimit="10" stroke-linecap="round"/>
<path d="M441.709 225.803C441.709 233.104 442.957 240.227 445.631 247.172" stroke="#302B28" stroke-width="0.74" stroke-miterlimit="10" stroke-linecap="round"/>
<path d="M321.389 242.364C316.398 228.118 304.99 219.926 298.216 217.967C294.829 216.899 290.908 216.365 287.521 217.789C284.134 219.214 281.639 222.241 280.391 225.803C279.143 229.186 279.321 233.104 279.856 236.666C281.46 246.816 286.808 255.898 292.869 264.268C297.503 270.857 303.385 277.624 311.229 278.514C313.546 278.87 316.22 278.514 318.18 277.089C320.141 275.843 321.567 273.35 321.211 270.857" fill="#A56F42"/>
<path d="M321.389 242.364C316.398 228.118 304.99 219.926 298.216 217.967C294.829 216.899 290.908 216.365 287.521 217.789C284.134 219.214 281.639 222.241 280.391 225.803C279.143 229.186 279.321 233.104 279.856 236.666C281.46 246.816 286.808 255.898 292.869 264.268C297.503 270.857 303.385 277.624 311.229 278.514C313.546 278.87 316.22 278.514 318.18 277.089C320.141 275.843 321.567 273.35 321.211 270.857" stroke="#302B28" stroke-width="0.74" stroke-miterlimit="10" stroke-linecap="round"/>
<path d="M304.455 230.255C302.138 227.406 299.464 224.913 296.077 223.666C292.69 222.42 288.591 222.954 286.095 225.625C283.956 227.94 283.6 231.502 283.6 234.707C283.6 236.488 283.778 238.447 284.669 240.049" stroke="#302B28" stroke-width="0.74" stroke-miterlimit="10" stroke-linecap="round"/>
<path d="M292.155 246.994C293.047 251.09 297.147 254.117 301.425 254.651C303.742 254.829 306.416 254.651 308.376 256.076C309.446 256.966 310.159 258.213 311.228 258.925C312.476 259.816 314.437 259.638 315.685 258.569C316.933 257.501 317.289 255.72 316.576 254.295C315.863 252.871 314.437 252.158 313.367 250.912C311.228 248.597 310.872 244.679 312.833 242.008" stroke="#302B28" stroke-width="0.74" stroke-miterlimit="10" stroke-linecap="round"/>
<path d="M316.398 228.118C320.319 229.721 323.528 233.282 324.776 237.378C326.023 241.474 325.31 246.104 322.815 249.666C321.924 251.09 320.498 252.515 320.498 254.296C320.498 256.255 322.102 257.857 323.884 258.926C327.271 261.063 331.371 262.131 334.401 264.98C337.253 267.83 338.144 273.35 334.758 275.487C332.44 276.912 329.41 276.021 326.915 277.268C325.132 278.158 323.884 279.939 323.706 281.898C323.528 284.925 326.023 288.131 324.597 290.802C323.528 292.761 321.032 293.295 318.893 293.117" stroke="#302B28" stroke-width="0.74" stroke-miterlimit="10" stroke-linecap="round"/>
<path d="M328.341 194.105C325.489 196.955 326.023 202.297 329.232 204.612C330.302 205.502 331.728 206.037 332.797 206.927C335.471 209.064 335.827 213.338 333.688 216.009C333.154 216.721 332.441 217.256 332.262 217.968C331.906 219.749 333.688 220.995 335.114 221.886C339.927 225.091 342.957 232.214 339.392 236.844C338.145 238.447 336.54 239.515 335.114 240.762C333.688 242.009 332.797 244.324 333.51 246.104C334.223 247.707 336.184 248.419 337.788 249.488C340.64 251.447 342.066 255.186 342.066 258.748C342.066 262.309 340.997 265.693 340.105 269.076" stroke="#302B28" stroke-width="0.74" stroke-miterlimit="10" stroke-linecap="round" stroke-linejoin="round"/>
<path d="M323.884 242.008C319.428 244.145 318.002 250.912 321.211 254.651C323.528 257.323 327.271 258.213 329.588 260.884C331.728 263.377 331.906 267.117 330.301 269.788C327.271 274.952 318.715 275.843 317.111 281.719C316.041 285.993 319.428 289.911 322.458 293.116C322.993 293.651 323.528 294.363 323.706 295.075C324.241 297.212 321.745 298.815 319.606 299.527" stroke="#302B28" stroke-width="0.74" stroke-miterlimit="10" stroke-linecap="round" stroke-linejoin="round"/>
<path d="M306.059 324.28C306.059 324.28 333.867 363.101 380.925 379.663C379.143 371.471 379.856 362.567 383.777 355.088C383.777 355.088 339.571 341.732 306.059 324.28Z" fill="#915D36"/>
<path d="M457.752 287.24L430.836 301.13C430.836 301.13 420.141 315.199 427.805 335.143C435.47 355.088 446.344 357.225 446.344 357.225C446.344 357.225 454.365 361.499 481.816 361.143L457.752 287.24Z" fill="#6059C9"/>
<path d="M532.261 361.32L530.122 354.553L562.742 355.978C562.742 355.978 537.609 293.472 541.887 252.158L457.752 287.24C457.752 287.24 439.035 305.582 446.344 332.293C453.652 359.005 481.816 361.32 481.816 361.32H505.88L511.049 379.128L523.527 380.553L532.261 361.32Z" fill="white"/>
<path d="M566.486 367.197C540.283 372.361 513.723 373.786 487.163 374.854C474.151 375.389 461.317 375.745 448.304 376.101C435.292 376.279 417.11 380.019 407.663 368.978C402.137 362.567 401.781 354.019 407.663 347.786C417.289 337.28 433.688 340.841 446.522 341.019C459.534 341.198 472.368 341.198 485.381 341.198C511.228 341.019 537.074 339.773 562.921 341.554C576.824 342.444 581.815 364.17 566.486 367.197Z" fill="#EFEFEF"/>
<path d="M485.559 394.621C485.559 385.183 486.807 373.964 495.007 369.512C498.75 367.553 503.028 367.375 507.128 367.731C512.832 368.087 519.606 370.402 520.675 375.923C524.597 369.334 528.875 362.21 536.005 359.005C542.778 355.978 550.978 357.046 556.86 361.498C562.743 365.772 566.486 373.073 566.842 380.374C573.616 381.265 579.498 386.251 581.816 392.662C582.529 394.621 582.885 396.936 584.133 398.717C585.202 400.319 586.807 401.388 588.054 402.634C591.798 406.374 592.867 412.429 590.728 417.237C596.432 420.976 598.75 428.812 597.502 435.579C596.432 442.346 592.511 448.4 588.054 453.743C582.172 461.044 575.399 467.633 568.09 473.331C566.664 474.4 565.238 475.468 564.525 477.071C563.99 478.139 563.99 479.386 563.812 480.633C562.564 503.248 564.703 571.631 565.773 594.068L508.732 584.808C511.228 560.412 505.345 495.591 504.276 471.016C504.098 467.277 503.919 463.715 503.028 460.154C501.959 455.88 499.998 452.14 498.215 448.044C495.007 440.209 493.046 431.839 492.689 423.291C492.511 419.73 492.689 415.99 491.085 412.785C489.837 410.114 487.877 407.977 486.629 405.483C485.559 402.278 485.559 398.36 485.559 394.621Z" fill="#A56F42"/>
<path d="M581.816 396.936C569.338 395.868 555.969 395.156 545.63 402.101C541.887 404.594 538.857 407.977 536.005 411.539C532.083 416.169 528.162 420.977 524.775 426.319C522.101 430.415 520.14 436.292 523.527 439.853C525.488 441.812 528.518 442.168 531.014 441.456C533.509 440.744 538.322 439.141 540.461 437.538" stroke="#302B28" stroke-width="0.74" stroke-miterlimit="10" stroke-linecap="round"/>
<path d="M564.347 380.197C556.682 378.95 548.482 377.882 541.174 380.909C537.431 382.512 534.222 385.183 531.37 388.21C525.31 394.443 520.319 401.744 517.11 409.758C516.041 412.429 514.971 415.278 514.793 418.305C514.614 420.442 514.971 422.579 516.219 424.36C517.467 426.141 522.992 427.209 524.953 426.319" stroke="#302B28" stroke-width="0.74" stroke-miterlimit="10" stroke-linecap="round"/>
<path d="M520.675 375.923C518.18 380.909 515.149 390.347 513.01 395.333C512.119 397.47 510.515 399.429 509.445 401.566C507.841 404.95 512.297 409.936 517.11 409.936" stroke="#302B28" stroke-width="0.74" stroke-miterlimit="10" stroke-linecap="round"/>
<path d="M516.575 385.896C511.941 391.238 500.711 394.087 493.937 391.416" stroke="#302B28" stroke-width="0.74" stroke-miterlimit="10" stroke-linecap="round"/>
<path d="M550.621 488.112C545.809 488.469 540.996 488.647 536.539 486.866C530.122 484.195 526.201 477.428 520.497 473.332C516.753 470.661 511.941 469.058 509.445 465.318" stroke="#302B28" stroke-width="0.74" stroke-miterlimit="10" stroke-linecap="round"/>
<path d="M575.933 444.483C575.933 444.483 584.668 459.62 587.876 467.634C590.906 475.469 574.507 487.4 566.129 483.839C557.752 480.277 544.026 448.401 544.026 448.401L575.933 444.483Z" fill="white"/>
<path d="M591.441 418.306C572.725 416.881 553.652 424.183 540.639 437.36C539.213 438.785 537.787 440.388 537.252 442.346C536.718 444.305 537.074 446.62 538.678 447.867C540.105 448.935 542.065 448.757 543.848 448.579C556.682 446.977 569.516 445.552 582.35 443.949" stroke="#302B28" stroke-width="0.74" stroke-miterlimit="10" stroke-linecap="round"/>
<path d="M606.058 353.485C562.545 353.485 527.27 325.899 527.27 291.87C527.27 257.841 562.545 230.255 606.058 230.255C649.571 230.255 684.845 257.841 684.845 291.87C684.845 325.899 649.571 353.485 606.058 353.485Z" fill="white"/>
<path d="M646.343 232.214C629.944 222.063 610.158 228.474 597.502 241.118C583.776 254.652 578.429 274.775 580.924 293.651C583.598 314.308 599.997 335.855 617.466 346.54C626.379 352.061 636.004 355.444 645.986 358.471C658.464 362.033 672.189 363.101 683.241 370.046C695.897 377.882 695.719 401.923 678.785 404.594C662.207 407.265 645.095 402.457 629.231 397.471C614.079 392.662 599.463 386.252 586.807 376.635C558.821 355.444 538.144 321.253 537.965 285.815C537.787 254.83 551.156 220.461 578.25 203.543C604.454 187.16 639.748 190.009 662.029 211.379C673.081 221.707 659.177 240.049 646.343 232.214Z" fill="#EFEFEF"/>
<path d="M541.887 270.679H602.315C609.98 270.679 617.288 274.418 621.388 281.007C623.17 283.857 624.418 287.596 624.418 291.87C624.418 307.363 614.971 314.308 611.049 316.267C603.028 320.363 556.86 339.061 556.86 339.061C556.86 339.061 535.827 316.445 541.887 270.679Z" fill="#E2E2E2"/>
<path d="M598.036 292.938C598.036 300.952 602.849 307.362 608.732 307.362C614.614 307.362 619.427 300.952 619.427 292.938C619.427 284.924 614.614 278.514 608.732 278.514C602.849 278.514 598.036 284.924 598.036 292.938Z" fill="#6059C9"/>
<path d="M593.402 204.789C631.013 199.269 667.198 233.816 674.329 282.075C681.28 330.156 656.503 373.608 618.892 379.128C581.281 384.648 545.096 350.101 537.966 301.842C531.014 253.761 555.791 210.31 593.402 204.789ZM545.096 300.774C551.334 343.868 583.776 374.676 617.466 369.868C651.156 365.06 673.437 326.061 667.02 283.144C660.781 240.049 628.339 209.241 594.65 214.049C561.138 218.858 538.857 257.679 545.096 300.774Z" fill="#6059C9"/>
<path d="M528.161 422.224C530.479 422.58 532.44 423.826 534.044 425.607C535.648 427.388 536.718 429.347 537.787 431.484C536.005 433.977 533.866 436.292 531.548 438.251C530.479 438.963 529.409 439.853 528.34 440.21C527.092 440.566 525.666 440.566 524.596 439.853" stroke="#302B28" stroke-width="0.74" stroke-miterlimit="10" stroke-linecap="round"/>
<path d="M517.823 408.333C522.279 409.758 525.844 413.319 527.27 417.771C525.488 420.264 523.527 422.401 521.388 424.716C520.675 425.428 519.962 426.141 519.071 426.319" stroke="#302B28" stroke-width="0.74" stroke-miterlimit="10" stroke-linecap="round"/>
<path d="M514.436 392.484C516.219 393.375 518.001 394.621 519.249 396.224C519.962 397.114 520.497 398.183 519.962 399.251C518.179 402.101 516.219 404.95 514.258 407.621C514.08 407.977 513.723 408.333 513.188 408.333" stroke="#302B28" stroke-width="0.74" stroke-miterlimit="10" stroke-linecap="round"/>
<path d="M545.63 433.977C548.126 435.757 549.908 438.785 550.265 441.812C547.056 445.017 542.956 446.798 538.5 447.154" stroke="#302B28" stroke-width="0.74" stroke-miterlimit="10" stroke-linecap="round"/>
<path d="M516.753 370.225C515.506 371.471 514.614 373.074 514.258 374.855C513.723 376.636 513.723 378.416 513.545 380.197C510.693 380.375 507.484 380.197 504.632 379.485C503.206 379.129 501.78 378.595 500.532 377.704C498.928 376.458 498.215 374.321 498.393 372.362C498.572 370.403 499.819 368.444 501.78 367.554" stroke="#302B28" stroke-width="0.74" stroke-miterlimit="10" stroke-linecap="round"/>
<path d="M206.594 519.811C202.138 551.508 199.642 583.385 198.751 615.439" stroke="#302B28" stroke-width="0.74" stroke-miterlimit="10" stroke-linecap="round"/>
<path d="M464.882 515.181C467.021 548.481 469.16 582.672 459.891 614.548" stroke="#302B28" stroke-width="0.74" stroke-miterlimit="10" stroke-linecap="round"/>
<path d="M399.285 415.278C391.442 438.785 371.3 457.839 347.414 464.072C323.528 470.483 296.434 463.894 278.074 447.332" stroke="#302B28" stroke-width="0.74" stroke-miterlimit="10" stroke-linecap="round"/>
<path d="M290.908 464.428C310.516 477.428 334.936 483.126 358.465 480.099C362.565 479.564 367.022 478.496 369.517 475.291" stroke="#302B28" stroke-width="0.74" stroke-miterlimit="10" stroke-linecap="round"/>
</g>
<defs>
<clipPath id="clip0_14_16180">
<rect width="818" height="632" fill="white" transform="matrix(-1 0 0 1 818 0)"/>
</clipPath>
</defs>
</svg>
