<?xml version="1.0" encoding="UTF-8"?>
<svg version="1.1" xmlns="http://www.w3.org/2000/svg" width="500" height="500">
<path d="M0 0 C0.93714844 0.03158203 1.87429687 0.06316406 2.83984375 0.09570312 C12.83037626 0.57776378 19.98955124 3.37743671 26.875 10.8125 C30.50134981 15.81832582 31.97264906 20.46366648 32.06787109 26.57763672 C32.08393402 27.51896454 32.09999695 28.46029236 32.11654663 29.43014526 C32.16119985 33.71758093 32.20203592 38.00486663 32.22509766 42.29248047 C32.24167372 44.55235073 32.26898517 46.81216821 32.30712891 49.07177734 C32.3619257 52.33718949 32.38377374 55.60137739 32.3984375 58.8671875 C32.42110687 59.87361298 32.44377625 60.88003845 32.46713257 61.91696167 C32.45400136 66.2830641 32.43515741 69.76907582 29.77978516 73.37158203 C26.358697 76.24635421 24.20022857 76.96441597 19.875 77.8125 C19.88388245 78.52802536 19.89276489 79.24355072 19.9019165 79.98075867 C19.98216473 86.73383444 20.04301602 93.48677657 20.08224869 100.24022198 C20.10309712 103.71203184 20.13136295 107.18344673 20.17675781 110.6550293 C20.22865439 114.64896369 20.24796773 118.64248515 20.265625 122.63671875 C20.28627014 123.87959152 20.30691528 125.12246429 20.32818604 126.40299988 C20.32848816 127.56382584 20.32879028 128.72465179 20.32910156 129.9206543 C20.33798401 130.93991501 20.34686646 131.95917572 20.35601807 133.00932312 C19.73797519 136.61102466 18.4718364 138.27722638 15.875 140.8125 C12.90827323 141.18483017 10.55643759 141.2933246 7.625 141.125 C6.50738281 141.09116211 6.50738281 141.09116211 5.3671875 141.05664062 C3.535591 140.99793561 1.70503347 140.90825757 -0.125 140.8125 C-0.125 140.1525 -0.125 139.4925 -0.125 138.8125 C-3.41575996 139.19154208 -3.41575996 139.19154208 -6.125 140.8125 C-8.39223769 140.96501793 -10.66531164 141.0344194 -12.9375 141.0625 C-14.18144531 141.08828125 -15.42539063 141.1140625 -16.70703125 141.140625 C-20.29660077 140.79602633 -21.65249478 140.37480565 -24.125 137.8125 C-25.17611609 134.65915174 -25.24570472 132.45737717 -25.23852539 129.14770508 C-25.23844986 127.98672806 -25.23837433 126.82575104 -25.23829651 125.6295929 C-25.23313522 124.37639755 -25.22797394 123.12320221 -25.22265625 121.83203125 C-25.2212413 120.54890549 -25.21982635 119.26577972 -25.21836853 117.94377136 C-25.21455405 114.53579759 -25.20473291 111.12786657 -25.19366455 107.71990967 C-25.18342743 104.24101337 -25.17886598 100.76211015 -25.17382812 97.28320312 C-25.16310967 90.45961788 -25.14604609 83.63606099 -25.125 76.8125 C-29.085 76.3175 -29.085 76.3175 -33.125 75.8125 C-33.125 75.1525 -33.125 74.4925 -33.125 73.8125 C-33.785 73.8125 -34.445 73.8125 -35.125 73.8125 C-36.90704294 70.73356139 -37.38700734 68.47010064 -37.43139648 64.92724609 C-37.45537758 63.47455826 -37.45537758 63.47455826 -37.47984314 61.99252319 C-37.48520584 60.95084991 -37.49056854 59.90917664 -37.49609375 58.8359375 C-37.50512222 57.75551178 -37.5141507 56.67508606 -37.52345276 55.56192017 C-37.53795952 53.27389292 -37.54684305 50.98582416 -37.55053711 48.69775391 C-37.56238599 45.2209532 -37.61152975 41.74595496 -37.66210938 38.26953125 C-37.67157959 36.04167528 -37.67881176 33.81380846 -37.68359375 31.5859375 C-37.70312607 30.55640961 -37.72265839 29.52688171 -37.74278259 28.46615601 C-37.69775148 21.15052158 -35.90716757 16.05767303 -32.125 9.8125 C-31.465 9.8125 -30.805 9.8125 -30.125 9.8125 C-30.125 9.1525 -30.125 8.4925 -30.125 7.8125 C-29.465 7.8125 -28.805 7.8125 -28.125 7.8125 C-28.125 7.1525 -28.125 6.4925 -28.125 5.8125 C-19.24771947 0.02296922 -10.40061913 -0.56979814 0 0 Z M-3.125 85.8125 C-3.125 91.7525 -3.125 97.6925 -3.125 103.8125 C-2.795 103.8125 -2.465 103.8125 -2.125 103.8125 C-2.125 97.8725 -2.125 91.9325 -2.125 85.8125 C-2.455 85.8125 -2.785 85.8125 -3.125 85.8125 Z " fill="#6552D2" transform="translate(145.125,195.1875)"/>
<path d="M0 0 C5.89997949 6.18661817 6.52807667 12.89529771 6.4609375 21.12890625 C6.4647644 22.17113846 6.46859131 23.21337067 6.47253418 24.28718567 C6.47524342 26.47816948 6.46795189 28.66918619 6.45117188 30.86010742 C6.42968386 34.21150555 6.45104162 37.56077587 6.4765625 40.91210938 C6.47392032 43.04687972 6.46879762 45.18164874 6.4609375 47.31640625 C6.46903442 48.31544479 6.47713135 49.31448334 6.48547363 50.34379578 C6.42686537 54.68897619 6.37192834 57.2940326 4.08398438 61.06762695 C0.76734534 64.07868716 -0.46962721 65.0234375 -5.0703125 65.0234375 C-5.06587128 65.6807637 -5.06143005 66.3380899 -5.05685425 67.01533508 C-5.0126759 73.84442984 -4.98246896 80.67348413 -4.96044922 87.50268555 C-4.95037922 90.05283252 -4.93672246 92.60296792 -4.91943359 95.15307617 C-4.89522938 98.8143194 -4.88383945 102.47541024 -4.875 106.13671875 C-4.86467743 107.2805452 -4.85435486 108.42437164 -4.84371948 109.6028595 C-4.84349289 111.19416939 -4.84349289 111.19416939 -4.84326172 112.81762695 C-4.8388205 113.75250443 -4.83437927 114.6873819 -4.82980347 115.65058899 C-5.0703125 118.0234375 -5.0703125 118.0234375 -7.0703125 121.0234375 C-10.39027514 122.13009171 -12.88719849 122.15278606 -16.3828125 122.15625 C-17.62289062 122.15753906 -18.86296875 122.15882813 -20.140625 122.16015625 C-21.43742187 122.15628906 -22.73421875 122.15242187 -24.0703125 122.1484375 C-25.36710937 122.15230469 -26.66390625 122.15617188 -28 122.16015625 C-29.24007812 122.15886719 -30.48015625 122.15757812 -31.7578125 122.15625 C-33.46517578 122.15455811 -33.46517578 122.15455811 -35.20703125 122.15283203 C-38.0703125 122.0234375 -38.0703125 122.0234375 -41.0703125 121.0234375 C-42.28894356 118.58617539 -42.2366461 116.93506812 -42.29492188 114.20996094 C-42.31744019 113.2084198 -42.3399585 112.20687866 -42.36315918 111.17498779 C-42.43408896 106.58760018 -42.49168406 102.00037642 -42.53027344 97.41259766 C-42.55688957 94.99345105 -42.59782408 92.57441814 -42.65332031 90.15576172 C-42.73241432 86.66847855 -42.7655765 83.18336091 -42.7890625 79.6953125 C-42.82205444 78.61699158 -42.85504639 77.53867065 -42.88903809 76.42767334 C-42.86928427 69.00510376 -42.86928427 69.00510376 -40.56860352 66.17834473 C-39.34400816 65.18228358 -38.08753437 64.22404076 -36.80130005 63.30895996 C-34.05123288 61.26661533 -33.14926904 59.2394741 -32.0703125 56.0234375 C-31.67024863 52.72970598 -31.64950981 49.47908019 -31.671875 46.1640625 C-31.66900482 45.21964294 -31.66613464 44.27522339 -31.66317749 43.30218506 C-31.66114153 41.30854695 -31.66663858 39.31488865 -31.67919922 37.32128906 C-31.69518761 34.29706151 -31.6793715 31.27418494 -31.66015625 28.25 C-31.66214016 26.30468459 -31.66598689 24.35937001 -31.671875 22.4140625 C-31.66580231 21.52205139 -31.65972961 20.63004028 -31.6534729 19.71099854 C-31.71387959 14.21238184 -32.56340536 9.54524291 -34.33041382 4.33392334 C-35.1047249 1.91597771 -35.61390994 -0.48091813 -36.0703125 -2.9765625 C-26.32966719 -11.4229962 -9.40486086 -6.53430092 0 0 Z " fill="#6451D1" transform="translate(213.0703125,207.9765625)"/>
<path d="M0 0 C0.88429688 -0.01160156 1.76859375 -0.02320313 2.6796875 -0.03515625 C9.09728956 -0.00607346 9.09728956 -0.00607346 12.359375 1.8984375 C13.04773438 2.62933594 13.04773438 2.62933594 13.75 3.375 C13.33438564 6.35356958 12.91222442 8.99473633 11.72810364 11.77038574 C10.70415427 14.49708363 10.49115451 16.46367937 10.4753418 19.36132812 C10.46580978 20.32582886 10.45627777 21.29032959 10.44645691 22.28405762 C10.44736832 23.3143811 10.44827972 24.34470459 10.44921875 25.40625 C10.44279106 27.00925964 10.44279106 27.00925964 10.43623352 28.64465332 C10.43049907 30.90062757 10.42998342 33.1566203 10.43432617 35.41259766 C10.43748866 38.86262515 10.41400639 42.31179705 10.38867188 45.76171875 C10.38639905 47.95572809 10.38569531 50.14973973 10.38671875 52.34375 C10.377509 53.37407349 10.36829926 54.40439697 10.35881042 55.46594238 C10.39232612 60.65570085 10.48585005 64.09832163 13.75 68.375 C13.75 69.035 13.75 69.695 13.75 70.375 C14.53375 70.66375 15.3175 70.9525 16.125 71.25 C18.75 72.375 18.75 72.375 20.75 74.375 C21.01742554 76.53147888 21.01742554 76.53147888 21.04052734 79.23608398 C21.05328705 80.2473082 21.06604675 81.25853241 21.07919312 82.30039978 C21.08141876 83.39622879 21.08364441 84.4920578 21.0859375 85.62109375 C21.0925943 86.74314713 21.0992511 87.8652005 21.10610962 89.02125549 C21.11624899 91.39769853 21.12092624 93.77417012 21.12060547 96.15063477 C21.12497811 99.7942578 21.16128454 103.43666965 21.19921875 107.08007812 C21.2050866 109.38541251 21.2090562 111.69075267 21.2109375 113.99609375 C21.22530853 115.08989853 21.23967957 116.18370331 21.25448608 117.31065369 C21.24833282 118.32503006 21.24217957 119.33940643 21.23583984 120.38452148 C21.23868988 121.27783676 21.24153992 122.17115204 21.24447632 123.09153748 C20.75 125.375 20.75 125.375 18.9046936 127.16363525 C15.96525018 128.8161849 13.73533094 128.74717229 10.375 128.73828125 C9.14265625 128.73763672 7.9103125 128.73699219 6.640625 128.73632812 C5.35671875 128.72021484 4.0728125 128.70410156 2.75 128.6875 C1.46609375 128.69072266 0.1821875 128.69394531 -1.140625 128.69726562 C-11.06706718 128.64015743 -11.06706718 128.64015743 -15.25 126.375 C-15.41908612 119.82815174 -15.57880954 113.2811219 -15.73217773 106.73388672 C-15.78538465 104.50889983 -15.84069572 102.28396218 -15.89819336 100.05908203 C-15.98070228 96.851996 -16.05551921 93.64480619 -16.12890625 90.4375 C-16.15594131 89.45072266 -16.18297638 88.46394531 -16.21083069 87.44726562 C-16.32794873 81.96692765 -16.08151619 76.79525366 -15.25 71.375 C-15.971875 71.4575 -16.69375 71.54 -17.4375 71.625 C-21.19467856 71.29102857 -22.60835804 70.01664196 -25.25 67.375 C-27.86228726 62.65917282 -27.55604219 57.82174437 -27.55078125 52.578125 C-27.55506638 51.62991882 -27.5593515 50.68171265 -27.56376648 49.70477295 C-27.56949991 47.70097653 -27.57001733 45.69715929 -27.56567383 43.69335938 C-27.56252521 40.64937157 -27.58594614 37.60636697 -27.61132812 34.5625 C-27.61360255 32.60937622 -27.61430395 30.65624984 -27.61328125 28.703125 C-27.622491 27.80281555 -27.63170074 26.9025061 -27.64118958 25.97491455 C-27.58828358 18.63547989 -26.55349206 11.66543817 -21.5625 6 C-15.26956502 0.41608757 -8.02696548 -0.107185 0 0 Z " fill="#624ED0" transform="translate(93.25,201.625)"/>
<path d="M0 0 C37.36082474 0 37.36082474 0 47.63671875 9.515625 C53.61698205 16.33994948 56.49675934 24.91856778 56.1796875 33.9375 C55.34106461 43.5634323 51.76461386 50.75819539 44.625 57.375 C32.2538324 67.21198569 14.42944736 64 0 64 C0 42.88 0 21.76 0 0 Z M15 14 C15 25.88 15 37.76 15 50 C25.83905499 50.22638438 25.83905499 50.22638438 35 47 C35 46.34 35 45.68 35 45 C35.66 45 36.32 45 37 45 C40.40660049 40.77581539 41.01759969 36.27990818 41 31 C40.38485218 26.73897606 39.17918847 22.73575166 37 19 C36.34 19 35.68 19 35 19 C35 18.34 35 17.68 35 17 C27.519001 13.54723123 24.15910897 14 15 14 Z " fill="#6551D1" transform="translate(366,174)"/>
<path d="M0 0 C37.86554428 0 37.86554428 0 48.125 9.9296875 C53.81156647 16.20860465 55.65682461 23.19554451 56.25 31.5 C55.58338954 40.83254639 53.10671612 49.35220484 45.95703125 55.859375 C32.02041918 65.8246693 17.08354397 63 0 63 C0 42.21 0 21.42 0 0 Z M15 13 C15 24.88 15 36.76 15 49 C27.63270172 49.74783974 27.63270172 49.74783974 37 44 C40.49885995 39.9368078 41.0089798 35.22624566 41 30 C39.99900422 24.99502109 38.71473913 19.875064 34.3203125 16.83984375 C26.58355758 12.36151466 25.7712825 13 15 13 Z " fill="#6654D0" transform="translate(366,258)"/>
<path d="M0 0 C5.28 0 10.56 0 16 0 C20.02639684 10.46863178 23.72499498 20.99363767 27.1953125 31.66015625 C29.1880932 37.76630332 29.1880932 37.76630332 31.5703125 43.7265625 C33.16022751 47.36685971 34.44595602 51.04285741 35.6875 54.8125 C35.91244141 55.47958984 36.13738281 56.14667969 36.36914062 56.83398438 C38 61.74639058 38 61.74639058 38 64 C33.05 64 28.1 64 23 64 C19 54.25 19 54.25 19 52 C11.41 52 3.82 52 -4 52 C-4.33 53.98 -4.66 55.96 -5 58 C-5.66 59.98 -6.32 61.96 -7 64 C-11.95 64 -16.9 64 -22 64 C-20.18139994 54.57634516 -17.29323201 45.32506343 -13.49609375 36.5078125 C-11.95099079 32.88509068 -10.7079262 29.24766847 -9.5 25.5 C-7.89923715 20.53353065 -6.08150917 15.78362662 -4 11 C-3.25421446 9.02703557 -2.52345834 7.04828019 -1.8125 5.0625 C-1.214375 3.391875 -0.61625 1.72125 0 0 Z M7 22 C6.16080602 24.26882087 5.32848276 26.53977027 4.5 28.8125 C4.26152344 29.45509766 4.02304687 30.09769531 3.77734375 30.75976562 C2.72931254 33.64933739 2 35.90076061 2 39 C5.96 39 9.92 39 14 39 C12.7915371 33.05064416 11.25422333 27.63555833 9 22 C8.34 22 7.68 22 7 22 Z " fill="#6754D0" transform="translate(322,174)"/>
<path d="M0 0 C2.7885289 -0.22107787 5.34653181 -0.28107535 8.125 -0.1875 C8.87910156 -0.17396484 9.63320313 -0.16042969 10.41015625 -0.14648438 C12.27374127 -0.11109985 14.13695978 -0.05729167 16 0 C19.03551611 7.29272877 21.62172923 14.67707432 24.0625 22.1875 C26.56763134 30.07326816 26.56763134 30.07326816 29.5859375 37.76953125 C31.12838337 41.2932957 32.35877456 44.84731589 33.5625 48.5 C34.18318359 50.37171875 34.18318359 50.37171875 34.81640625 52.28125 C35.94680898 55.83287839 36.97606477 59.41622669 38 63 C33.05 63 28.1 63 23 63 C19 53.25 19 53.25 19 51 C11.41 51 3.82 51 -4 51 C-4 52.65 -4 54.3 -4 56 C-4.79972102 58.46104623 -5.89379923 60.64932336 -7 63 C-11.95 63 -16.9 63 -22 63 C-19.94495581 55.06779122 -17.46181519 47.43378455 -14.625 39.75 C-10.93087193 29.62214382 -7.38967382 19.4716439 -4.10546875 9.203125 C-3.00379394 5.79498814 -1.99962104 2.99943155 0 0 Z M7 21 C6.16080602 23.26882087 5.32848276 25.53977027 4.5 27.8125 C4.26152344 28.45509766 4.02304687 29.09769531 3.77734375 29.75976562 C2.72931254 32.64933739 2 34.90076061 2 38 C5.96 38 9.92 38 14 38 C12.31108451 32.12900806 10.53630629 26.55571853 8 21 C7.67 21 7.34 21 7 21 Z " fill="#6653D0" transform="translate(322,258)"/>
<path d="M0 0 C2.41936317 -0.16249454 4.82781859 -0.28097817 7.25 -0.375 C7.93191406 -0.42527344 8.61382812 -0.47554687 9.31640625 -0.52734375 C11.328125 -0.5859375 11.328125 -0.5859375 15 0 C17.21875 2.5078125 17.21875 2.5078125 19 6 C19.51965332 6.97090576 19.51965332 6.97090576 20.04980469 7.96142578 C21.15392543 10.04067197 22.20647646 12.1397635 23.25 14.25 C23.61351562 14.96929687 23.97703125 15.68859375 24.3515625 16.4296875 C27 21.74647556 27 21.74647556 27 24 C27.66 24 28.32 24 29 24 C29.22429687 23.20335937 29.44859375 22.40671875 29.6796875 21.5859375 C31.37583647 16.97923704 33.70070092 12.88280259 36.125 8.625 C36.59292969 7.79355469 37.06085938 6.96210938 37.54296875 6.10546875 C38.69067969 4.06769627 39.84470816 2.03348416 41 0 C45.95 0 50.9 0 56 0 C55.05982316 4.70088422 53.89232825 7.42115555 51.625 11.5625 C51.28138428 12.21033447 50.93776855 12.85816895 50.58374023 13.52563477 C48.55331057 17.31925011 46.39780459 20.97417773 44.05859375 24.5859375 C35.82069344 37.70644734 34.43199817 48.62432253 35 64 C30.71 64 26.42 64 22 64 C21.96261719 62.39769531 21.92523438 60.79539063 21.88671875 59.14453125 C21.82105252 57.03383101 21.75460541 54.92315497 21.6875 52.8125 C21.66494141 51.75740234 21.64238281 50.70230469 21.61914062 49.61523438 C21.5659668 48.08286133 21.5659668 48.08286133 21.51171875 46.51953125 C21.48553467 45.58214111 21.45935059 44.64475098 21.43237305 43.67895508 C20.92806429 40.55429105 19.66675613 38.65965825 18 36 C18 35.01 18 34.02 18 33 C17.34 33 16.68 33 16 33 C15.5153125 32.00742188 15.030625 31.01484375 14.53125 29.9921875 C10.46517448 21.73220461 6.19681903 13.69429949 1.46875 5.79296875 C0 3 0 3 0 0 Z " fill="#6754D0" transform="translate(250,174)"/>
<path d="M0 0 C2.6058889 -0.13494246 5.20482111 -0.23402299 7.8125 -0.3125 C8.55048828 -0.35439453 9.28847656 -0.39628906 10.04882812 -0.43945312 C12.20703125 -0.48828125 12.20703125 -0.48828125 16 0 C18.45645667 2.84758181 19 4.24177486 19 8 C19.66 8 20.32 8 21 8 C23.31 12.95 25.62 17.9 28 23 C32.19238997 15.73319072 36.30755782 8.53258205 40 1 C41 0 41 0 44.37890625 -0.09765625 C45.77347077 -0.09098369 47.16801743 -0.07902532 48.5625 -0.0625 C49.62887695 -0.05573242 49.62887695 -0.05573242 50.71679688 -0.04882812 C52.47790013 -0.03700864 54.23896036 -0.01907263 56 0 C55.39848795 4.39186195 53.68294024 7.85996469 51.5625 11.6875 C51.21630615 12.32381348 50.8701123 12.96012695 50.51342773 13.61572266 C49.34977699 15.74801321 48.17532596 17.87412453 47 20 C46.09372437 21.6497255 45.1874751 23.29946549 44.28125 24.94921875 C43.37573205 26.59154967 42.46949394 28.23348375 41.5625 29.875 C41.12558838 30.66608154 40.68867676 31.45716309 40.23852539 32.2722168 C39.83110107 33.00480713 39.42367676 33.73739746 39.00390625 34.4921875 C38.64111572 35.14558105 38.2783252 35.79897461 37.90454102 36.47216797 C37 38 37 38 36 39 C35.84235595 40.77869726 35.74899323 42.56318476 35.68359375 44.34765625 C35.62075195 45.96704102 35.62075195 45.96704102 35.55664062 47.61914062 C35.51732422 48.75544922 35.47800781 49.89175781 35.4375 51.0625 C35.37272461 52.77276367 35.37272461 52.77276367 35.30664062 54.51757812 C35.20017262 57.34489508 35.09954738 60.17243092 35 63 C30.71 63 26.42 63 22 63 C22 55.08 22 47.16 22 39 C21.34 39 20.68 39 20 39 C19.52691406 38.030625 19.05382812 37.06125 18.56640625 36.0625 C13.2241281 25.20164443 7.63585948 14.45232399 1.23828125 4.16796875 C0 2 0 2 0 0 Z " fill="#6856D0" transform="translate(250,258)"/>
<path d="M0 0 C0 0.66 0 1.32 0 2 C0.66 2 1.32 2 2 2 C5.69417637 7.48168107 7.46440285 12.31062271 7 19 C5.97334944 22.50016213 4.61869766 25.73481587 3 29 C2.34 29 1.68 29 1 29 C1 29.66 1 30.32 1 31 C0.34 31 -0.32 31 -1 31 C-1 31.66 -1 32.32 -1 33 C-8.34264341 36.14684717 -13.86552756 37.32260425 -21.5 34.5 C-22.655 34.005 -23.81 33.51 -25 33 C-25 32.34 -25 31.68 -25 31 C-25.598125 30.79375 -26.19625 30.5875 -26.8125 30.375 C-29.90008742 28.43423077 -30.60073247 26.34182608 -32 23 C-33.02759502 16.20512748 -33.09243964 9.76430624 -29.375 3.8125 C-22.00374479 -5.55803433 -9.77087678 -5.91395174 0 0 Z " fill="#6654D1" transform="translate(155,156)"/>
<path d="M0 0 C8.40077922 3.62102553 13.49197755 8.405345 17 17 C19.74644841 25.27389176 19.93465122 33.74366068 17 42 C13.06325398 49.59678784 7.71012213 55.70233773 -0.3125 58.9375 C-4 60 -4 60 -6 59 C-6.625 56.4375 -6.625 56.4375 -7 54 C-6.34 54 -5.68 54 -5 54 C-4.67 52.35 -4.34 50.7 -4 49 C-5.65 48.67 -7.3 48.34 -9 48 C-9 48.66 -9 49.32 -9 50 C-11.48020497 49.88658509 -13.95844969 49.75985314 -16.4375 49.625 C-17.14455078 49.5940625 -17.85160156 49.563125 -18.58007812 49.53125 C-20.39239188 49.42719371 -22.19817988 49.22080108 -24 49 C-25.64311459 45.71377082 -24.99748737 42.09273349 -24.87890625 38.4921875 C-24.85529526 37.65156769 -24.83168427 36.81094788 -24.80735779 35.94485474 C-24.73066362 33.2547338 -24.64666417 30.5648966 -24.5625 27.875 C-24.50928506 26.05339939 -24.45654463 24.23178486 -24.40429688 22.41015625 C-24.27504071 17.93992382 -24.13923154 13.4699324 -24 9 C-21.79949671 8.98637225 -19.59896847 8.97674466 -17.3984375 8.96875 C-16.17302246 8.96294922 -14.94760742 8.95714844 -13.68505859 8.95117188 C-8.75538472 9.01649152 -3.89538479 9.44052745 1 10 C0.67 9.67 0.34 9.34 0 9 C0.33 8.01 0.66 7.02 1 6 C-0.32 5.34 -1.64 4.68 -3 4 C-2.67 3.34 -2.34 2.68 -2 2 C-1.34 2 -0.68 2 0 2 C0 1.34 0 0.68 0 0 Z M-22 11 C-22 22.88 -22 34.76 -22 47 C-11.16094501 47.22638438 -11.16094501 47.22638438 -2 44 C-2 43.34 -2 42.68 -2 42 C-1.34 42 -0.68 42 0 42 C3.40660049 37.77581539 4.01759969 33.27990818 4 28 C3.38485218 23.73897606 2.17918847 19.73575166 0 16 C-0.66 16 -1.32 16 -2 16 C-2 15.34 -2 14.68 -2 14 C-9.480999 10.54723123 -12.84089103 11 -22 11 Z " fill="#6654D0" transform="translate(403,177)"/>
<path d="M0 0 C0 0.66 0 1.32 0 2 C0.5775 2.20625 1.155 2.4125 1.75 2.625 C5.90605419 5.16481089 7.63789518 8.72056298 8.9375 13.3125 C9.04062791 19.39704655 7.50273193 24.07984253 3.75 28.875 C-0.96657196 32.51962378 -4.95272329 34.31033585 -10.9375 34.0625 C-16.43971839 33.27407236 -20.26415255 31.10228224 -24 27 C-27.2063447 22.10665694 -27.45888651 17.08208018 -26.62890625 11.39453125 C-25.38572513 6.66117707 -23.12585793 3.5019164 -19.13671875 0.68359375 C-12.5593938 -2.98182811 -6.98122838 -2.72438181 0 0 Z " fill="#6653D1" transform="translate(198,164)"/>
<path d="M0 0 C0 0.66 0 1.32 0 2 C0.66 2 1.32 2 2 2 C5.16679344 7.64515353 6.6602137 12.63643148 5.375 19.0625 C3.73652904 24.66151334 0.71782147 28.04565474 -4.375 30.875 C-11.20026662 32.99318619 -15.65797191 32.17101404 -22 29 C-22.99 28.34 -23.98 27.68 -25 27 C-25 26.34 -25 25.68 -25 25 C-25.66 25 -26.32 25 -27 25 C-30.16543328 19.80868942 -29.59899697 13.86578739 -29 8 C-27.25 4.4375 -27.25 4.4375 -25 2 C-24.38125 1.2575 -23.7625 0.515 -23.125 -0.25 C-16.06893275 -6.06087891 -7.36444374 -4.34313349 0 0 Z " fill="#6551D1" transform="translate(107,166)"/>
<path d="M0 0 C6.62022204 0.41376388 11.35102399 5.35102399 15.8125 9.8125 C18.48326772 13.70419011 19.78224586 17.47456231 21 22 C21.18691406 22.68449219 21.37382812 23.36898438 21.56640625 24.07421875 C23.23131169 31.46879877 21.5834004 39.55307376 17.875 46.0625 C17.25625 47.031875 16.6375 48.00125 16 49 C15.34 47.68 14.68 46.36 14 45 C13.01 45.495 13.01 45.495 12 46 C9.375 44.6875 9.375 44.6875 7 43 C7 42.34 7 41.68 7 41 C6.34 41 5.68 41 5 41 C4.67 42.32 4.34 43.64 4 45 C0.535 45.495 0.535 45.495 -3 46 C-2.236875 45.443125 -1.47375 44.88625 -0.6875 44.3125 C4.1016823 40.1915757 5.50248777 36.43372169 6.00390625 30.2734375 C5.99490973 25.03746054 4.28261407 20.04855736 1 16 C-5.27495057 11.30564151 -10.94052443 11.67162296 -19 11 C-19 22.88 -19 34.76 -19 47 C-17.35 47 -15.7 47 -14 47 C-14 47.33 -14 47.66 -14 48 C-15.98 48 -17.96 48 -20 48 C-20 35.46 -20 22.92 -20 10 C-13.565 9.505 -13.565 9.505 -7 9 C-6.34 8.67 -5.68 8.34 -5 8 C-4.01 8.99 -3.02 9.98 -2 11 C-2.3403125 9.948125 -2.3403125 9.948125 -2.6875 8.875 C-3.09532639 5.12299725 -1.86377293 3.20568943 0 0 Z " fill="#6755CF" transform="translate(400,260)"/>
<path d="M0 0 C1.39456452 0.00667256 2.78911118 0.01863093 4.18359375 0.03515625 C4.89451172 0.03966797 5.60542969 0.04417969 6.33789062 0.04882812 C8.09899388 0.06064761 9.86005411 0.07858362 11.62109375 0.09765625 C11.02406096 4.69832072 9.08722817 8.34759428 6.87109375 12.34765625 C6.51273437 13.00644775 6.154375 13.66523926 5.78515625 14.34399414 C4.73744667 16.26581574 3.68081673 18.18243846 2.62109375 20.09765625 C2.0796875 21.08121094 1.53828125 22.06476563 0.98046875 23.078125 C-0.13200175 25.08888346 -1.25049592 27.09581293 -2.37890625 29.09765625 C-3.58518633 26.76551477 -4.54438005 24.60123486 -5.37890625 22.09765625 C-5.04890625 21.10765625 -4.71890625 20.11765625 -4.37890625 19.09765625 C-3.71890625 19.09765625 -3.05890625 19.09765625 -2.37890625 19.09765625 C-2.37890625 18.43765625 -2.37890625 17.77765625 -2.37890625 17.09765625 C-3.16265625 17.09765625 -3.94640625 17.09765625 -4.75390625 17.09765625 C-6.29557292 17.09765625 -7.83723958 17.09765625 -9.37890625 17.09765625 C-10.03890625 18.08765625 -10.69890625 19.07765625 -11.37890625 20.09765625 C-12.03890625 20.09765625 -12.69890625 20.09765625 -13.37890625 20.09765625 C-11.99176205 15.50404808 -10.1188388 11.49106123 -7.81640625 7.28515625 C-6.88634766 5.57392578 -6.88634766 5.57392578 -5.9375 3.828125 C-3.81529007 0.1102685 -3.81529007 0.1102685 0 0 Z " fill="#6D5CD0" transform="translate(294.37890625,257.90234375)"/>
<path d="M0 0 C4.40114397 0.50298788 6.71195019 2.08772731 10 5 C9.34 5 8.68 5 8 5 C8.66 6.65 9.32 8.3 10 10 C9.01 10.33 8.02 10.66 7 11 C6.67 11.825 6.34 12.65 6 13.5 C5.67 14.325 5.34 15.15 5 16 C2 17 2 17 0.24609375 16.2578125 C-0.35074219 15.88398438 -0.94757813 15.51015625 -1.5625 15.125 C-2.46162109 14.57199219 -2.46162109 14.57199219 -3.37890625 14.0078125 C-3.91386719 13.67523438 -4.44882812 13.34265625 -5 13 C-9.21637021 10.89181489 -14.30223824 11.39148015 -19 11 C-19 22.88 -19 34.76 -19 47 C-17.35 47 -15.7 47 -14 47 C-14 47.33 -14 47.66 -14 48 C-15.98 48 -17.96 48 -20 48 C-20 35.46 -20 22.92 -20 10 C-13.565 9.505 -13.565 9.505 -7 9 C-6.34 8.67 -5.68 8.34 -5 8 C-4.01 8.99 -3.02 9.98 -2 11 C-2.3403125 9.948125 -2.3403125 9.948125 -2.6875 8.875 C-3.09532639 5.12299725 -1.86377293 3.20568943 0 0 Z " fill="#7F6FD7" transform="translate(400,260)"/>
<path d="M0 0 C2.27057377 -0.05398987 4.54151288 -0.09278742 6.8125 -0.125 C8.07707031 -0.14820313 9.34164063 -0.17140625 10.64453125 -0.1953125 C14 0 14 0 17 2 C12.05 2 7.1 2 2 2 C2 13.88 2 25.76 2 38 C6.95 38 11.9 38 17 38 C16.01 38.495 16.01 38.495 15 39 C15 39.66 15 40.32 15 41 C12.51979503 40.88658509 10.04155031 40.75985314 7.5625 40.625 C6.85544922 40.5940625 6.14839844 40.563125 5.41992188 40.53125 C3.60760812 40.42719371 1.80182012 40.22080108 0 40 C-1.64311459 36.71377082 -0.99748737 33.09273349 -0.87890625 29.4921875 C-0.85529526 28.65156769 -0.83168427 27.81094788 -0.80735779 26.94485474 C-0.73066362 24.2547338 -0.64666417 21.5648966 -0.5625 18.875 C-0.50928506 17.05339939 -0.45654463 15.23178486 -0.40429688 13.41015625 C-0.27504071 8.93992382 -0.13923154 4.4699324 0 0 Z " fill="#897DD4" transform="translate(379,186)"/>
<path d="M0 0 C1.32 0.66 2.64 1.32 4 2 C3.67 10.58 3.34 19.16 3 28 C-1.29 28 -5.58 28 -10 28 C-10 20.08 -10 12.16 -10 4 C-9.67 4 -9.34 4 -9 4 C-9 11.26 -9 18.52 -9 26 C-5.7 26 -2.4 26 1 26 C0.67 17.42 0.34 8.84 0 0 Z " fill="#7363C3" transform="translate(282,210)"/>
<path d="M0 0 C5.28 0 10.56 0 16 0 C15.67 0.99 15.34 1.98 15 3 C13.68 2.67 12.36 2.34 11 2 C10.835 3.27875 10.67 4.5575 10.5 5.875 C10.4071875 6.59429687 10.314375 7.31359375 10.21875 8.0546875 C9.9627515 10.00498344 9.9627515 10.00498344 10 12 C10.66 12 11.32 12 12 12 C11.67 12.99 11.34 13.98 11 15 C7.6575649 14.04339166 6.2451078 13.34453331 4.19921875 10.46875 C3.45091797 8.99921875 3.45091797 8.99921875 2.6875 7.5 C2.17574219 6.5203125 1.66398438 5.540625 1.13671875 4.53125 C0 2 0 2 0 0 Z " fill="#614FD0" transform="translate(250,258)"/>
<path d="M0 0 C0.33 0 0.66 0 1 0 C1.01981934 1.28688721 1.03963867 2.57377441 1.06005859 3.8996582 C1.13606405 8.66890207 1.22478924 13.43783881 1.31738281 18.20678711 C1.35569348 20.27182965 1.39054266 22.3369394 1.421875 24.40209961 C1.46748014 27.36857138 1.52548201 30.3345796 1.5859375 33.30078125 C1.59748871 34.2258699 1.60903992 35.15095856 1.62094116 36.1040802 C1.64081085 36.96474594 1.66068054 37.82541168 1.68115234 38.7121582 C1.70113785 39.84800102 1.70113785 39.84800102 1.7215271 41.00679016 C1.89708612 43.31605188 1.89708612 43.31605188 4 46 C4.66 46.33 5.32 46.66 6 47 C6.66 47.99 7.32 48.98 8 50 C8.45375 49.175 8.9075 48.35 9.375 47.5 C9.91125 46.675 10.4475 45.85 11 45 C11.66 45 12.32 45 13 45 C12.67 47.64 12.34 50.28 12 53 C8.63316819 53.38478078 7.22817329 53.1432716 4.3125 51.3125 C0.65600252 47.65600252 -0.1090081 44.46166586 -0.22705078 39.39331055 C-0.22673588 37.55774949 -0.21554072 35.72216837 -0.1953125 33.88671875 C-0.19106766 32.43239189 -0.19106766 32.43239189 -0.18673706 30.94868469 C-0.17556991 27.86149595 -0.15047152 24.77460061 -0.125 21.6875 C-0.11496573 19.59049899 -0.10584066 17.49349342 -0.09765625 15.39648438 C-0.07564188 10.2642104 -0.04113571 5.1321549 0 0 Z " fill="#8476D5" transform="translate(66,220)"/>
<path d="M0 0 C4.95 0 9.9 0 15 0 C15 0.33 15 0.66 15 1 C13.329375 1.2165625 13.329375 1.2165625 11.625 1.4375 C8.17857953 1.78372035 8.17857953 1.78372035 6 3 C6 3.66 6 4.32 6 5 C2.17555757 8.64232612 -0.80474854 10.6393389 -6 12 C-4.43358249 7.69235185 -2.31663844 3.93828536 0 0 Z " fill="#7462D5" transform="translate(291,174)"/>
<path d="M0 0 C4.62 0 9.24 0 14 0 C12.61702128 5.53191489 12.61702128 5.53191489 11 8 C8.9375 8.625 8.9375 8.625 7 9 C6.67 9.66 6.34 10.32 6 11 C3.90769231 6.56923077 3.90769231 6.56923077 4.375 3.6875 C4.684375 2.8521875 4.684375 2.8521875 5 2 C3.35 1.67 1.7 1.34 0 1 C0 0.67 0 0.34 0 0 Z " fill="#5642C2" transform="translate(292,175)"/>
<path d="M0 0 C0.33 1.32 0.66 2.64 1 4 C1.66 4 2.32 4 3 4 C3 21.16 3 38.32 3 56 C2.34 56 1.68 56 1 56 C1.00444122 55.443694 1.00888245 54.887388 1.01345825 54.31422424 C1.05793064 48.48986395 1.08796506 42.66555242 1.10986328 36.84106445 C1.11988013 34.67144815 1.13349742 32.5018452 1.15087891 30.33227539 C1.17531771 27.20195199 1.18652657 24.07180812 1.1953125 20.94140625 C1.20563507 19.98166397 1.21595764 19.02192169 1.22659302 18.03309631 C1.22757695 12.03892258 0.38954285 6.82471434 -1 1 C-0.67 0.67 -0.34 0.34 0 0 Z " fill="#8578CF" transform="translate(180,210)"/>
<path d="M0 0 C4.95 0 9.9 0 15 0 C14.10429689 4.47851553 13.74999027 5.77175056 11 9 C10.34 7.02 9.68 5.04 9 3 C7.1128125 2.9690625 7.1128125 2.9690625 5.1875 2.9375 C4.47980469 2.92589844 3.77210938 2.91429687 3.04296875 2.90234375 C0.79694539 2.91736783 0.79694539 2.91736783 -2 4 C-1.34 2.68 -0.68 1.36 0 0 Z " fill="#887AD1" transform="translate(291,258)"/>
<path d="M0 0 C0.33 0 0.66 0 1 0 C0.85879286 1.93784265 0.71187127 3.87526955 0.5625 5.8125 C0.48128906 6.89144531 0.40007812 7.97039062 0.31640625 9.08203125 C0 12 0 12 -1 15 C2.63 15.66 6.26 16.32 10 17 C10 17.33 10 17.66 10 18 C5.05 18 0.1 18 -5 18 C-3.72520789 11.8221613 -2.1079151 5.94432058 0 0 Z " fill="#7F71D0" transform="translate(305,220)"/>
<path d="M0 0 C2.7885289 -0.22107787 5.34653181 -0.28107535 8.125 -0.1875 C8.87910156 -0.17396484 9.63320313 -0.16042969 10.41015625 -0.14648438 C12.27374127 -0.11109985 14.13695978 -0.05729167 16 0 C16 0.33 16 0.66 16 1 C10.94997778 2.03590199 6.12583611 2.10251672 1 2 C1.020625 2.94875 1.04125 3.8975 1.0625 4.875 C1 8 1 8 0 10 C0.66 10.33 1.32 10.66 2 11 C1.01 11.33 0.02 11.66 -1 12 C-1.2226746 10.56465159 -1.42761906 9.12654475 -1.625 7.6875 C-1.74101562 6.88699219 -1.85703125 6.08648437 -1.9765625 5.26171875 C-2 3 -2 3 0 0 Z " fill="#8679D4" transform="translate(322,258)"/>
<path d="M0 0 C5.28 0 10.56 0 16 0 C16 0.33 16 0.66 16 1 C15.04287109 1.07347656 15.04287109 1.07347656 14.06640625 1.1484375 C13.24011719 1.22320312 12.41382813 1.29796875 11.5625 1.375 C10.32693359 1.47941406 10.32693359 1.47941406 9.06640625 1.5859375 C8.04353516 1.79089844 8.04353516 1.79089844 7 2 C5.73973202 4.52053595 6.08125555 5.8542098 6.4375 8.625 C6.53933594 9.44226563 6.64117187 10.25953125 6.74609375 11.1015625 C6.82988281 11.72804688 6.91367187 12.35453125 7 13 C0 4.25 0 4.25 0 0 Z " fill="#8D81D5" transform="translate(250,258)"/>
<path d="M0 0 C1.98362069 2.91708924 1.9876191 4.12380904 1.625 7.75 C1.41875 8.8225 1.2125 9.895 1 11 C0.01 11.33 -0.98 11.66 -2 12 C-2 12.99 -2 13.98 -2 15 C1.3 15.33 4.6 15.66 8 16 C8 16.33 8 16.66 8 17 C3.71 17 -0.58 17 -5 17 C-1.85714286 5.28571429 -1.85714286 5.28571429 0 0 Z " fill="#897CCC" transform="translate(305,304)"/>
<path d="M0 0 C0 2.64 0 5.28 0 8 C-4.62 8 -9.24 8 -14 8 C-14 7.67 -14 7.34 -14 7 C-10.04 7 -6.08 7 -2 7 C-2 6.34 -2 5.68 -2 5 C-3.65 5.33 -5.3 5.66 -7 6 C-7.33 5.01 -7.66 4.02 -8 3 C-6.35 3 -4.7 3 -3 3 C-3 2.34 -3 1.68 -3 1 C-1 0 -1 0 0 0 Z " fill="#5542BF" transform="translate(315,229)"/>
<path d="M0 0 C0.99 0.99 1.98 1.98 3 3 C2.67 3.99 2.34 4.98 2 6 C0.35 6 -1.3 6 -3 6 C-2.67 6.66 -2.34 7.32 -2 8 C-0.35 8 1.3 8 3 8 C3 8.66 3 9.32 3 10 C0.03 9.67 -2.94 9.34 -6 9 C-6 8.01 -6 7.02 -6 6 C-5.34 6 -4.68 6 -4 6 C-4 5.34 -4 4.68 -4 4 C-2.70766393 2.62689293 -1.37562854 1.28965176 0 0 Z " fill="#624DD7" transform="translate(310,226)"/>
<path d="M0 0 C7.18438698 0.92859424 12.46925141 2.12544242 18.046875 7.046875 C16.234375 7.734375 16.234375 7.734375 14.046875 8.046875 C13.02389578 7.07039483 12.02783248 6.06556162 11.046875 5.046875 C6.17701469 2.95979201 1.2717966 2.4880906 -3.953125 2.046875 C-1.953125 0.046875 -1.953125 0.046875 0 0 Z " fill="#8174C7" transform="translate(193.953125,200.953125)"/>
<path d="M0 0 C2.2109885 0.42793326 3.98119242 0.99059621 6 2 C5.67 2.99 5.34 3.98 5 5 C3.6078125 5.1546875 3.6078125 5.1546875 2.1875 5.3125 C-1.03254358 6.0070192 -2.02579865 6.47740939 -4 9 C-4 5.28703828 -2.65223411 2.65223411 0 0 Z " fill="#7767CF" transform="translate(72,208)"/>
<path d="M0 0 C0.66 0.66 1.32 1.32 2 2 C0.4375 3.625 0.4375 3.625 -2 5 C-5.75 4.1875 -5.75 4.1875 -9 3 C-9 2.34 -9 1.68 -9 1 C-5.98675805 -0.50662097 -3.31713623 -0.17770373 0 0 Z " fill="#7563CC" transform="translate(192,162)"/>
<path d="M0 0 C0 1.65 0 3.3 0 5 C-1.60875 4.938125 -1.60875 4.938125 -3.25 4.875 C-6.65747485 4.9885825 -8.20739631 5.21273364 -11 7 C-11.33 6.01 -11.66 5.02 -12 4 C-8.49445122 2.03689269 -4.06957864 0 0 0 Z " fill="#614DD5" transform="translate(415,304)"/>
<path d="M0 0 C1.53674273 2.99004241 2.90306293 6.01823885 4.1875 9.125 C4.55230469 9.99382812 4.91710937 10.86265625 5.29296875 11.7578125 C6 14 6 14 5 16 C4.16121545 14.71186658 3.32913217 13.41936744 2.5 12.125 C2.0359375 11.40570313 1.571875 10.68640625 1.09375 9.9453125 C0 8 0 8 0 6 C-0.66 5.67 -1.32 5.34 -2 5 C-1.34 3.35 -0.68 1.7 0 0 Z " fill="#8477CF" transform="translate(341,268)"/>
<path d="M0 0 C0.66 0 1.32 0 2 0 C3.59162079 5.57067277 4.20674944 10.21101581 4 16 C3.34 16 2.68 16 2 16 C1.67 12.04 1.34 8.08 1 4 C0.01 3.67 -0.98 3.34 -2 3 C-1.34 2.01 -0.68 1.02 0 0 Z " fill="#7A6DC9" transform="translate(418,194)"/>
<path d="M0 0 C0.33 0 0.66 0 1 0 C1 3.96 1 7.92 1 12 C0.01 12.33 -0.98 12.66 -2 13 C-2.73323796 15.01508358 -2.73323796 15.01508358 -3 17 C-3.66 17 -4.32 17 -5 17 C-3.63172347 11.21113776 -1.95088223 5.61854082 0 0 Z " fill="#7F73C8" transform="translate(311,287)"/>
<path d="M0 0 C1.09570312 0.00902344 2.19140625 0.01804688 3.3203125 0.02734375 C4.16335937 0.03894531 5.00640625 0.05054688 5.875 0.0625 C5.875 0.7225 5.875 1.3825 5.875 2.0625 C4.29370971 2.28581199 2.70978911 2.49054644 1.125 2.6875 C-0.19757813 2.86152344 -0.19757813 2.86152344 -1.546875 3.0390625 C-4.35359878 3.06457817 -5.75884866 2.51093844 -8.125 1.0625 C-5.36047967 -0.31976016 -3.0788637 -0.03275387 0 0 Z " fill="#7F70CD" transform="translate(190.125,194.9375)"/>
<path d="M0 0 C2.31 0.33 4.62 0.66 7 1 C5.75453595 4.73639216 4.36595047 5.18756513 1 7 C-0.0625 4.625 -0.0625 4.625 -1 2 C-0.67 1.34 -0.34 0.68 0 0 Z " fill="#7060CC" transform="translate(408,308)"/>
<path d="M0 0 C2.55770268 2.25510123 3.71113591 4.22021475 4.8125 7.4375 C5.08707031 8.19933594 5.36164063 8.96117187 5.64453125 9.74609375 C6.0797682 12.50578295 5.45806895 13.67239175 4 16 C3.566875 14.453125 3.566875 14.453125 3.125 12.875 C2.44153517 10.46334553 1.69626268 8.12253663 0.875 5.75 C0 3 0 3 0 0 Z " fill="#7668C7" transform="translate(348,207)"/>
<path d="M0 0 C0.66 0.33 1.32 0.66 2 1 C1.67 1.66 1.34 2.32 1 3 C0.34 3 -0.32 3 -1 3 C-1.33 4.65 -1.66 6.3 -2 8 C-3.65 8.33 -5.3 8.66 -7 9 C-5.64978174 4.58110387 -3.73884332 2.65654657 0 0 Z " fill="#7E71D0" transform="translate(180,164)"/>
<path d="M0 0 C-1.6875 1.5625 -1.6875 1.5625 -4 3 C-6.75 2.6875 -6.75 2.6875 -9 2 C-9 1.01 -9 0.02 -9 -1 C-5.38055101 -2.34053666 -3.42632833 -1.61798838 0 0 Z " fill="#7361D3" transform="translate(409,315)"/>
<path d="M0 0 C3.64775386 3.88309282 4.58525633 6.71201818 5 12 C4.01 11.67 3.02 11.34 2 11 C0.60955102 7.12137916 0 4.13537997 0 0 Z " fill="#8072CB" transform="translate(171,206)"/>
<path d="M0 0 C0.33 0.66 0.66 1.32 1 2 C1.66 2.33 2.32 2.66 3 3 C2.875 4.875 2.875 4.875 2 7 C-1.0625 8.25 -1.0625 8.25 -4 9 C-2.80100302 5.9168649 -1.52299523 2.93720508 0 0 Z " fill="#8473D3" transform="translate(289,177)"/>
<path d="M0 0 C5.56890517 0.47986031 10.67067568 1.29915181 16 3 C16 3.33 16 3.66 16 4 C9.79029227 4.33266291 5.71735105 3.45029331 0 1 C0 0.67 0 0.34 0 0 Z " fill="#8D80D5" transform="translate(130,188)"/>
<path d="M0 0 C0.99 0 1.98 0 3 0 C5.6855594 2.6855594 6.06049974 5.37621328 7 9 C6.34 9.66 5.68 10.32 5 11 C3.35 7.37 1.7 3.74 0 0 Z " fill="#7A6BCF" transform="translate(255,184)"/>
<path d="M0 0 C1.41750563 0.11509661 2.83401169 0.24253658 4.25 0.375 C5.03890625 0.44460937 5.8278125 0.51421875 6.640625 0.5859375 C9.085877 1.01507113 10.84836903 1.78600638 13 3 C13 3.33 13 3.66 13 4 C11.33388095 4.042721 9.66617115 4.04063832 8 4 C7.67 3.67 7.34 3.34 7 3 C4.67182036 2.63239269 2.3381615 2.29758419 0 2 C0 1.34 0 0.68 0 0 Z " fill="#8477C9" transform="translate(92,162)"/>
<path d="M0 0 C3.63 0 7.26 0 11 0 C10.67 0.66 10.34 1.32 10 2 C8.68 1.67 7.36 1.34 6 1 C5.34 2.65 4.68 4.3 4 6 C3.71125 5.38125 3.4225 4.7625 3.125 4.125 C2.06279958 1.86674235 2.06279958 1.86674235 0 0 Z " fill="#5F4EC0" transform="translate(255,259)"/>
<path d="M0 0 C1.34977849 0.63270867 2.68352881 1.30062468 4 2 C4.66 2 5.32 2 6 2 C5.67 2.99 5.34 3.98 5 5 C3.02 5.33 1.04 5.66 -1 6 C-1.33 4.35 -1.66 2.7 -2 1 C-1.34 0.67 -0.68 0.34 0 0 Z " fill="#7769CC" transform="translate(398,231)"/>
<path d="M0 0 C0.99 0.33 1.98 0.66 3 1 C2.09456151 3.71631546 1.07525194 6.34771188 0 9 C-0.99 9 -1.98 9 -3 9 C-3 7.68 -3 6.36 -3 5 C-2.34 5 -1.68 5 -1 5 C-0.67 3.35 -0.34 1.7 0 0 Z " fill="#8575D9" transform="translate(328,276)"/>
<path d="M0 0 C0.33 1.32 0.66 2.64 1 4 C-3.30769231 7.93846154 -3.30769231 7.93846154 -6.8125 8.25 C-7.534375 8.1675 -8.25625 8.085 -9 8 C-7.88625 7.13375 -7.88625 7.13375 -6.75 6.25 C-4.33912357 4.27746474 -2.15957299 2.23955718 0 0 Z " fill="#8071CA" transform="translate(216,265)"/>
<path d="M0 0 C5.94 0 11.88 0 18 0 C17.01 0.495 17.01 0.495 16 1 C16 1.66 16 2.32 16 3 C13.51979503 2.88658509 11.04155031 2.75985314 8.5625 2.625 C7.85544922 2.5940625 7.14839844 2.563125 6.41992188 2.53125 C4.60760812 2.42719371 2.80182012 2.22080108 1 2 C0.67 1.34 0.34 0.68 0 0 Z " fill="#5341B6" transform="translate(378,224)"/>
<path d="M0 0 C1.65 1.65 3.3 3.3 5 5 C4.67 5.66 4.34 6.32 4 7 C1.03 6.505 1.03 6.505 -2 6 C-1.34 4.02 -0.68 2.04 0 0 Z " fill="#8174D0" transform="translate(212,208)"/>
<path d="M0 0 C0.66 0.99 1.32 1.98 2 3 C1.11728545 6.5308582 0.02559537 8.96160695 -2 12 C-2.66 12 -3.32 12 -4 12 C-3.38722388 9.03824877 -2.74627478 7.61941217 -1 5 C-0.61500109 3.34450469 -0.27206865 1.6777567 0 0 Z " fill="#8173D0" transform="translate(293,193)"/>
<path d="M0 0 C-0.33 0.66 -0.66 1.32 -1 2 C-4.47325181 3.1577506 -7.36067448 3.06866652 -11 3 C-11 2.34 -11 1.68 -11 1 C-7.26562152 0.12132271 -3.83225427 -0.08912219 0 0 Z " fill="#897CCE" transform="translate(103,195)"/>
<path d="M0 0 C1.98 0 3.96 0 6 0 C4.92598892 2.91517292 4.22189824 4.77810176 2 7 C1.34 4.69 0.68 2.38 0 0 Z " fill="#7F6ED2" transform="translate(300,176)"/>
<path d="M0 0 C0.99 0 1.98 0 3 0 C4.98362069 2.91708924 4.9876191 4.12380904 4.625 7.75 C4.41875 8.8225 4.2125 9.895 4 11 C3.67 11 3.34 11 3 11 C2.51171875 9.01432292 2.0234375 7.02864583 1.53515625 5.04296875 C1.08989295 3.34316798 0.55566015 1.66698046 0 0 Z " fill="#9688D3" transform="translate(403,194)"/>
<path d="M0 0 C0.33 0.99 0.66 1.98 1 3 C2.65 2.34 4.3 1.68 6 1 C6 1.66 6 2.32 6 3 C5.34 3 4.68 3 4 3 C4 3.66 4 4.32 4 5 C3.01 5.33 2.02 5.66 1 6 C1 5.34 1 4.68 1 4 C-0.32 3.67 -1.64 3.34 -3 3 C-2.01 2.01 -1.02 1.02 0 0 Z " fill="#7564CB" transform="translate(150,184)"/>
<path d="M0 0 C0.33 0 0.66 0 1 0 C1 1.98 1 3.96 1 6 C-3.625 8.125 -3.625 8.125 -7 7 C-6.21625 6.5875 -5.4325 6.175 -4.625 5.75 C-1.94108344 3.9607223 -1.11901051 2.95011861 0 0 Z " fill="#8A7FD0" transform="translate(404,298)"/>
<path d="M0 0 C2.0625 1.5625 2.0625 1.5625 4 4 C3.75 7.75 3.75 7.75 3 11 C2.67 11 2.34 11 2 11 C0.80712589 7.12315913 0 4.08378077 0 0 Z " fill="#8E83CD" transform="translate(404,277)"/>
<path d="M0 0 C0.98120464 3.05263664 0.98120464 4.94736336 0 8 C-0.66 8 -1.32 8 -2 8 C-2.33 6.02 -2.66 4.04 -3 2 C-2.01 1.34 -1.02 0.68 0 0 Z " fill="#6454C1" transform="translate(103,212)"/>
<path d="M0 0 C1 2 1 2 0.44140625 3.9453125 C0.15136719 4.66460937 -0.13867188 5.38390625 -0.4375 6.125 C-0.72496094 6.84945312 -1.01242187 7.57390625 -1.30859375 8.3203125 C-1.53675781 8.87460938 -1.76492188 9.42890625 -2 10 C-2.33 9.34 -2.66 8.68 -3 8 C-3.66 7.67 -4.32 7.34 -5 7 C-2.25 1.125 -2.25 1.125 0 0 Z " fill="#8477D2" transform="translate(328,197)"/>
<path d="M0 0 C0.66 0.66 1.32 1.32 2 2 C1.69347955 4.9425963 1.32728846 7.34542308 0 10 C-0.99 9.67 -1.98 9.34 -3 9 C-2.34 8.01 -1.68 7.02 -1 6 C-0.60986284 4.0103005 -0.26797351 2.00980131 0 0 Z " fill="#9489D1" transform="translate(406,208)"/>
<path d="M0 0 C0 0.99 0 1.98 0 3 C0.66 3 1.32 3 2 3 C2 3.66 2 4.32 2 5 C1.01 5.33 0.02 5.66 -1 6 C-3.1875 4.5625 -3.1875 4.5625 -5 3 C-2.25 0 -2.25 0 0 0 Z " fill="#6F60CB" transform="translate(104,190)"/>
<path d="M0 0 C-0.33 1.32 -0.66 2.64 -1 4 C-3.92879371 3.37240135 -6.36095629 2.41377341 -9 1 C-5.8035914 -0.06546953 -3.34252724 -0.07427838 0 0 Z " fill="#7867CC" transform="translate(402,187)"/>
<path d="M0 0 C0.99 0 1.98 0 3 0 C3.33 1.65 3.66 3.3 4 5 C3.01 5.33 2.02 5.66 1 6 C1 5.34 1 4.68 1 4 C0.34 4 -0.32 4 -1 4 C-0.67 2.68 -0.34 1.36 0 0 Z " fill="#796CCA" transform="translate(81,187)"/>
<path d="M0 0 C2.31 0.33 4.62 0.66 7 1 C3.99382731 4.00617269 1.17618402 3.59585316 -3 4 C-2.01 2.68 -1.02 1.36 0 0 Z " fill="#7B6CCD" transform="translate(86,164)"/>
<path d="M0 0 C0.66 1.32 1.32 2.64 2 4 C0 5 0 5 -3.125 4.0625 C-4.07375 3.711875 -5.0225 3.36125 -6 3 C-3 1 -3 1 0 0 Z " fill="#7363D4" transform="translate(276,278)"/>
<path d="M0 0 C2.5 1.375 2.5 1.375 5 3 C5 3.66 5 4.32 5 5 C3.0625 5.5625 3.0625 5.5625 1 6 C0 5 0 5 -0.0625 2.4375 C-0.041875 1.633125 -0.02125 0.82875 0 0 Z " fill="#7264CE" transform="translate(108,272)"/>
<path d="M0 0 C1.88391785 3.26545761 2.49287967 6.28111761 3 10 C2.34 10 1.68 10 1 10 C-1.42857143 3.71428571 -1.42857143 3.71428571 0 0 Z " fill="#8472CC" transform="translate(356,226)"/>
<path d="M0 0 C0 0.66 0 1.32 0 2 C0.66 2 1.32 2 2 2 C1.67 2.99 1.34 3.98 1 5 C-1.46800047 3.84826645 -3.04783565 2.95216435 -5 1 C-3 0 -3 0 0 0 Z " fill="#7363D2" transform="translate(184,202)"/>
<path d="M0 0 C3.62528568 -0.20140476 5.86501708 0.14223235 9 2 C9 2.66 9 3.32 9 4 C4.545 3.01 4.545 3.01 0 2 C0 1.34 0 0.68 0 0 Z " fill="#5F4BD0" transform="translate(142,186)"/>
<path d="M0 0 C0.33 0.66 0.66 1.32 1 2 C1.66 2 2.32 2 3 2 C3.33 1.34 3.66 0.68 4 0 C4.33 1.32 4.66 2.64 5 4 C2.36 4 -0.28 4 -3 4 C-2.01 3.67 -1.02 3.34 0 3 C0 2.01 0 1.02 0 0 Z " fill="#614DD8" transform="translate(352,315)"/>
<path d="M0 0 C0.66 0 1.32 0 2 0 C2.33 2.31 2.66 4.62 3 7 C1.68 7 0.36 7 -1 7 C-0.67 4.69 -0.34 2.38 0 0 Z " fill="#6151BB" transform="translate(319,265)"/>
<path d="M0 0 C1.80330533 3.60661066 2.46599103 6.08393425 3 10 C2.01 9.67 1.02 9.34 0 9 C0 6.03 0 3.06 0 0 Z " fill="#8679D0" transform="translate(341,184)"/>
<path d="M0 0 C0.33 0.66 0.66 1.32 1 2 C1.66 2 2.32 2 3 2 C3.33 2.99 3.66 3.98 4 5 C2.35 5.33 0.7 5.66 -1 6 C-1 3 -1 3 0 0 Z " fill="#8071D1" transform="translate(106,166)"/>
<path d="M0 0 C1.65 0 3.3 0 5 0 C4.67 1.65 4.34 3.3 4 5 C3.67 4.34 3.34 3.68 3 3 C2.01 3 1.02 3 0 3 C0 2.01 0 1.02 0 0 Z " fill="#614FC0" transform="translate(135,153)"/>
<path d="M0 0 C0.33 0.99 0.66 1.98 1 3 C1.66 3 2.32 3 3 3 C2.67 3.66 2.34 4.32 2 5 C0.02 4.34 -1.96 3.68 -4 3 C-3 1 -3 1 0 0 Z " fill="#5B48C3" transform="translate(269,267)"/>
<path d="M0 0 C0.99 0.66 1.98 1.32 3 2 C2.67 2.99 2.34 3.98 2 5 C0.35 4.67 -1.3 4.34 -3 4 C-2.67 3.34 -2.34 2.68 -2 2 C-1.34 2 -0.68 2 0 2 C0 1.34 0 0.68 0 0 Z " fill="#6D5AD9" transform="translate(403,177)"/>
</svg>
