<svg width="96" height="96" viewBox="0 0 96 96" fill="none" xmlns="http://www.w3.org/2000/svg">
<circle cx="48" cy="48" r="48" fill="#6059C9"/>
<g clip-path="url(#clip0_15_9346)">
<path opacity="0.4" d="M42.5 24C41.61 24 40.74 24.2639 39.9999 24.7584C39.2599 25.2529 38.6831 25.9557 38.3425 26.7779C38.0019 27.6002 37.9128 28.505 38.0865 29.3779C38.2601 30.2508 38.6887 31.0526 39.318 31.682C39.9474 32.3113 40.7492 32.7399 41.6221 32.9135C42.495 33.0872 43.3998 32.9981 44.2221 32.6575C45.0443 32.3169 45.7471 31.7401 46.2416 31.0001C46.7361 30.26 47 29.39 47 28.5C46.998 27.3071 46.5233 26.1637 45.6798 25.3202C44.8363 24.4767 43.6929 24.002 42.5 24V24ZM76.0156 30.2437L59.1012 24.0938C58.916 24.0266 58.7193 23.9966 58.5224 24.0054C58.3255 24.0143 58.1323 24.0619 57.9538 24.1455C57.7753 24.2291 57.6151 24.347 57.4822 24.4926C57.3493 24.6381 57.2464 24.8084 57.1794 24.9938L53.0731 36.2719C53.0059 36.4572 52.9759 36.6539 52.9848 36.8507C52.9937 37.0476 53.0413 37.2408 53.1249 37.4193C53.2084 37.5978 53.3264 37.7581 53.4719 37.8909C53.6175 38.0238 53.7878 38.1267 53.9731 38.1937L70.895 44.3438C71.0803 44.4109 71.277 44.4409 71.4739 44.4321C71.6707 44.4232 71.8639 44.3756 72.0424 44.292C72.2209 44.2084 72.3812 44.0905 72.514 43.9449C72.6469 43.7994 72.7498 43.6291 72.8169 43.4437L76.9062 32.1656C76.9745 31.9809 77.0055 31.7845 76.9976 31.5877C76.9896 31.3909 76.9428 31.1976 76.8599 31.019C76.7769 30.8404 76.6595 30.6799 76.5142 30.5468C76.369 30.4138 76.1989 30.3108 76.0137 30.2437H76.0156Z" fill="#FFFCF7"/>
<path d="M59.0936 43.875L54.6124 42.375L49.9905 37.7531C49.436 37.1934 48.7759 36.7494 48.0485 36.4469C47.3211 36.1443 46.5408 35.9892 45.753 35.9906H39.8561C38.7415 35.9875 37.6483 36.2968 36.7005 36.8834C35.7526 37.47 34.9881 38.3104 34.4936 39.3094L29.3167 49.6594C29.1223 50.0132 29.0012 50.4027 28.9608 50.8045C28.9205 51.2062 28.9616 51.612 29.0818 51.9975C29.202 52.383 29.3988 52.7402 29.6604 53.0478C29.922 53.3554 30.243 53.6071 30.6042 53.7877C30.9653 53.9682 31.3592 54.0741 31.7623 54.0988C32.1653 54.1235 32.5692 54.0666 32.9497 53.9314C33.3302 53.7963 33.6795 53.5858 33.9767 53.3124C34.2739 53.0391 34.5129 52.7085 34.6792 52.3406L36.4999 48.7125V53.85L35.0074 68.7C34.9288 69.4905 35.167 70.2798 35.6696 70.8949C36.1723 71.5101 36.8983 71.9007 37.6886 71.9812C37.7917 71.9906 37.8949 72 37.9886 72C38.7314 71.998 39.4471 71.721 39.9977 71.2224C40.5482 70.7238 40.8946 70.0389 40.9699 69.3L42.2074 57H43.6417L46.9999 63.7031V69C46.9999 69.7956 47.3159 70.5587 47.8786 71.1213C48.4412 71.6839 49.2042 72 49.9999 72C50.7955 72 51.5586 71.6839 52.1212 71.1213C52.6838 70.5587 52.9999 69.7956 52.9999 69V63.7031C53.0003 62.7729 52.7853 61.8551 52.3717 61.0219L48.5093 53.2875V44.7375L50.3843 46.6125C51.0442 47.2696 51.846 47.7667 52.728 48.0656L57.0499 49.5094L55.9999 52.3969C55.9327 52.5821 55.9027 52.7788 55.9116 52.9757C55.9204 53.1726 55.968 53.3658 56.0516 53.5443C56.1352 53.7228 56.2531 53.883 56.3987 54.0159C56.5442 54.1488 56.7145 54.2517 56.8999 54.3187L58.3061 54.8344C58.4914 54.9015 58.6881 54.9315 58.885 54.9227C59.0819 54.9138 59.2751 54.8662 59.4536 54.7826C59.632 54.699 59.7923 54.5811 59.9252 54.4355C60.0581 54.29 60.161 54.1197 60.228 53.9344L64.5583 42.0403L60.3124 40.5L59.0936 43.875ZM69.2824 24.6094L67.8761 24.0937C67.6908 24.0266 67.4941 23.9966 67.2973 24.0054C67.1004 24.0143 66.9072 24.0619 66.7287 24.1455C66.5502 24.2291 66.3899 24.347 66.2571 24.4925C66.1242 24.6381 66.0213 24.8084 65.9542 24.9937L65.4396 26.4L69.6677 27.9375L70.1824 26.5312C70.2496 26.346 70.2796 26.1493 70.2707 25.9524C70.2618 25.7555 70.2142 25.5623 70.1306 25.3838C70.0471 25.2053 69.9291 25.0451 69.7836 24.9122C69.638 24.7793 69.4677 24.6764 69.2824 24.6094Z" fill="#FFFCF7"/>
</g>
<defs>
<clipPath id="clip0_15_9346">
<rect width="48" height="48" fill="white" transform="translate(29 24)"/>
</clipPath>
</defs>
</svg>
